<svg width="91" height="90" viewBox="0 0 91 90" fill="none" xmlns="http://www.w3.org/2000/svg">
<mask id="path-1-inside-1_228_194" fill="white">
<path fill-rule="evenodd" clip-rule="evenodd" d="M61.0317 62.5453C60.3043 64.6922 61.6249 63.6682 62.8396 66.5142C63.6023 68.2798 63.8283 70.2642 63.7647 72.3476C61.1588 72.623 62.9243 72.1004 61.6955 68.0891C59.4921 60.8716 53.3975 62.4323 49.6052 59.551C50.1207 59.1555 50.6574 58.8024 51.2577 58.3434C53.3551 56.7615 53.9978 59.0143 59.3509 57.842C64.3862 56.7403 59.7393 57.1993 64.5839 57.6866C67.1545 57.9479 68.1574 57.5383 70.3325 57.0934C69.6545 59.1838 68.7576 60.2431 67.1757 61.1329C64.5839 62.5948 63.4399 61.9168 61.0317 62.5453ZM52.197 26.3378C51.1235 26.8463 49.2097 29.5017 49.4639 31.6485C49.6334 33.0115 51.1165 32.9974 51.5261 31.9451C51.978 30.794 51.6885 30.1302 52.5642 28.8802C55.2549 25.0384 58.6023 31.9593 65.0147 29.9395C67.4865 29.1627 66.8014 26.8463 70.4808 29.4098C77.3099 34.1485 77.2393 42.1782 67.8396 41.2954C67.7266 40.3138 67.204 39.0426 67.4865 38.2446C67.9455 36.9451 68.4681 37.1429 68.0726 35.229C67.2887 34.883 66.5331 34.5511 66.1164 35.7728C65.4243 37.8138 65.8904 36.4649 64.8452 37.6655C64.4144 38.6824 67.7054 42.3688 63.3269 45.8858C62.2111 46.7827 61.3142 47.3759 59.6122 47.7643C57.1687 48.3222 55.9752 47.3971 54.4921 47.5454C53.2351 47.6654 45.608 51.4084 40.0289 49.5369C37.9809 48.8519 37.8891 47.4959 36.1024 47.9479C35.0007 50.7586 39.1673 51.0694 40.6292 52.0369C39.8736 52.6866 39.2874 52.9691 39.7959 54.2756C41.8156 54.9677 42.0557 53.414 43.0656 52.2134C46.8721 52.1287 50.269 51.3872 53.7506 50.0736C55.8975 49.2685 59.1602 51.4931 63.8071 48.301C66.3353 46.5637 66.2082 45.8787 67.5924 43.5129C69.4003 43.527 70.615 43.6259 72.3734 43.1033C74.0613 42.6019 74.6051 41.9239 75.7703 41.3236C77.5782 44.3321 74.8876 45.8999 74.8099 48.2092C74.6404 53.1951 69.5345 56.3095 64.026 55.4126C62.2393 55.116 62.1757 54.5439 60.4243 55.2431C56.9215 56.6273 54.7888 55.6668 52.2323 55.3773C51.3566 55.2713 51.1447 55.6739 50.6927 56.0482C48.0091 58.2586 45.0642 59.2968 41.1518 58.9295C39.7606 58.8024 38.2916 58.1668 37.0699 58.3292C32.6349 58.9013 29.1744 58.8448 26.6179 54.4521C27.4513 53.1033 28.8708 52.3406 30.947 48.5694C32.1546 46.366 31.7097 47.4465 34.0897 46.5567C36.1377 45.794 35.9682 45.2361 37.2606 44.4239C42.317 47.616 46.5402 44.0355 49.9865 42.0157C52.8325 40.342 51.3636 41.7474 54.4003 41.7403C54.8099 44.0355 56.752 45.7516 58.9625 44.3533L59.0402 43.0256C57.9667 42.383 57.8255 42.8844 56.8791 42.3759C56.2506 41.133 56.752 41.2883 56.6037 40.0383C55.5868 38.6754 55.3537 39.0708 53.6376 39.431C53.4187 38.0256 53.447 36.6344 54.2591 35.7375C54.817 35.1231 56.8226 34.5369 55.5444 33.1245C54.9229 32.6514 51.4131 33.1386 51.2859 38.9649C49.5698 39.9253 49.9936 39.318 47.3877 41.1259C46.286 41.8816 44.9512 42.6725 43.3976 43.1669C37.9597 44.89 34.5628 39.6711 38.786 34.0355C40.6009 31.6203 43.3976 31.6556 44.8947 27.8774C45.5939 26.126 45.5021 24.544 46.0035 22.7432C47.2817 18.1458 52.317 15.4268 56.8226 20.0455C61.3142 24.657 66.3777 22.1147 65.6009 26.4226C65.4031 27.5031 64.9653 27.7856 63.913 27.9692C60.8057 28.513 58.9695 27.0228 56.8015 26.0906C55.9187 25.7093 55.156 25.6952 54.3085 25.4127C53.8919 23.8731 54.5133 23.2305 54.1108 21.8957C51.4342 20.9141 51.9992 24.4875 52.197 26.3378ZM25.7917 25.1796C25.149 29.2686 25.6081 32.5878 28.6518 34.0002C27.7408 40.2149 20.7917 39.1626 20.3397 39.2756C19.6829 39.4451 19.4711 39.9889 19.6688 40.5892C19.8736 41.2601 20.481 41.2601 21.1095 41.5426C20.4598 43.7671 19.7747 45.5327 21.0389 47.616C21.9923 47.7643 21.9075 47.7572 22.6843 47.4324C23.0021 45.8293 22.1476 45.4267 22.7973 43.2092C23.3694 41.2672 23.9626 41.4508 25.7352 40.7799C33.7224 37.7785 28.6165 27.6302 37.3382 25.9141C38.221 25.7446 38.7365 25.681 38.8707 24.9113C39.0473 23.8873 38.2422 23.8731 37.762 23.4777C38.1221 22.6796 37.988 22.6373 37.7761 21.8816C35.9188 21.2743 35.9682 22.3124 35.3962 23.7601C34.8948 25.0243 33.4117 24.424 31.4767 26.9381C29.9371 28.9296 29.8524 30.5257 29.0826 31.6627C27.2888 30.1867 27.31 27.5243 28.1434 24.9042C29.3298 21.1542 32.0628 19.5017 35.7563 19.4734C38.1716 19.4593 37.4301 19.0921 39.012 18.1316C41.2295 16.7828 43.7648 16.8887 45.9894 18.1811C45.5868 19.0497 44.2309 20.1443 43.6871 23.0469C43.2351 25.4409 43.3057 26.9664 41.9498 28.5906C40.9117 29.8477 33.8496 33.2305 34.7676 39.7417C35.1984 42.8279 37.9809 43.3575 30.8693 45.0595C29.2027 45.4621 29.3722 49.1485 24.3651 53.3858C21.2649 56.0129 16.957 57.1287 13.8355 53.7812C12.3242 52.1569 12.3736 50.4197 12.8256 48.068C13.101 46.6273 9.83127 39.1626 17.2112 35.2714C20.9753 33.287 18.8637 34.4522 20.0855 30.6033C20.8129 28.3293 22.9456 25.4904 25.7917 25.1796ZM17.4654 32.7573C13.0728 34.4169 9.60529 39.0073 10.0573 44.1344C10.1491 45.1654 10.3892 45.8575 10.5587 46.7615C10.7705 47.9409 10.3962 48.5129 10.3539 49.7135C10.1914 53.6894 12.3807 56.2389 15.1844 57.39C19.4499 59.1555 22.2112 57.0934 24.7818 55.8716C25.0996 56.2671 25.4456 56.825 25.7422 57.1499C30.5233 62.2628 34.6617 60.3631 37.6702 60.5256C39.7888 60.6386 41.971 61.7897 45.9894 60.7939C48.8354 60.0877 46.745 61.5143 52.1616 63.2233C55.4738 64.2685 56.2506 64.0284 58.2351 66.1753C60.7209 68.8518 59.4639 72.0086 60.2266 73.4351C60.8481 74.6074 65.848 75.9634 65.9752 71.8885C66.0599 69.1343 65.3749 66.486 64.2591 64.4521C66.5189 63.7388 68.4116 63.3151 69.7746 62.0086C70.9893 60.8434 72.2251 59.0355 72.6912 56.9521C73.1997 54.6852 72.8678 55.8575 74.1743 54.5793C75.4737 53.3081 76.7096 51.2177 76.9426 49.1979C77.3311 45.8646 80.0994 44.1979 77.4511 39.8477C76.5542 38.3717 78.7082 37.6231 76.6672 33.3364C75.3325 30.5327 71.7096 26.3661 67.8043 26.1048C67.9737 20.2926 61.7803 21.7333 59.3015 19.5017C58.6306 18.8943 58.0585 17.941 56.6885 16.9523C54.5345 15.3915 51.3989 15.0243 48.7436 16.246C47.7973 16.6839 47.9738 16.811 47.0275 16.3025C43.6024 14.4664 40.4738 14.424 37.2182 16.7616C35.721 17.835 35.8128 16.8958 32.9527 17.6443C30.1561 18.3717 28.2352 19.9607 27.1194 21.9452C26.0812 23.8025 24.3581 22.0794 20.6928 25.6175C18.8567 27.3901 17.8256 29.3604 17.4654 32.7573Z"/>
</mask>
<path fill-rule="evenodd" clip-rule="evenodd" d="M61.0317 62.5453C60.3043 64.6922 61.6249 63.6682 62.8396 66.5142C63.6023 68.2798 63.8283 70.2642 63.7647 72.3476C61.1588 72.623 62.9243 72.1004 61.6955 68.0891C59.4921 60.8716 53.3975 62.4323 49.6052 59.551C50.1207 59.1555 50.6574 58.8024 51.2577 58.3434C53.3551 56.7615 53.9978 59.0143 59.3509 57.842C64.3862 56.7403 59.7393 57.1993 64.5839 57.6866C67.1545 57.9479 68.1574 57.5383 70.3325 57.0934C69.6545 59.1838 68.7576 60.2431 67.1757 61.1329C64.5839 62.5948 63.4399 61.9168 61.0317 62.5453ZM52.197 26.3378C51.1235 26.8463 49.2097 29.5017 49.4639 31.6485C49.6334 33.0115 51.1165 32.9974 51.5261 31.9451C51.978 30.794 51.6885 30.1302 52.5642 28.8802C55.2549 25.0384 58.6023 31.9593 65.0147 29.9395C67.4865 29.1627 66.8014 26.8463 70.4808 29.4098C77.3099 34.1485 77.2393 42.1782 67.8396 41.2954C67.7266 40.3138 67.204 39.0426 67.4865 38.2446C67.9455 36.9451 68.4681 37.1429 68.0726 35.229C67.2887 34.883 66.5331 34.5511 66.1164 35.7728C65.4243 37.8138 65.8904 36.4649 64.8452 37.6655C64.4144 38.6824 67.7054 42.3688 63.3269 45.8858C62.2111 46.7827 61.3142 47.3759 59.6122 47.7643C57.1687 48.3222 55.9752 47.3971 54.4921 47.5454C53.2351 47.6654 45.608 51.4084 40.0289 49.5369C37.9809 48.8519 37.8891 47.4959 36.1024 47.9479C35.0007 50.7586 39.1673 51.0694 40.6292 52.0369C39.8736 52.6866 39.2874 52.9691 39.7959 54.2756C41.8156 54.9677 42.0557 53.414 43.0656 52.2134C46.8721 52.1287 50.269 51.3872 53.7506 50.0736C55.8975 49.2685 59.1602 51.4931 63.8071 48.301C66.3353 46.5637 66.2082 45.8787 67.5924 43.5129C69.4003 43.527 70.615 43.6259 72.3734 43.1033C74.0613 42.6019 74.6051 41.9239 75.7703 41.3236C77.5782 44.3321 74.8876 45.8999 74.8099 48.2092C74.6404 53.1951 69.5345 56.3095 64.026 55.4126C62.2393 55.116 62.1757 54.5439 60.4243 55.2431C56.9215 56.6273 54.7888 55.6668 52.2323 55.3773C51.3566 55.2713 51.1447 55.6739 50.6927 56.0482C48.0091 58.2586 45.0642 59.2968 41.1518 58.9295C39.7606 58.8024 38.2916 58.1668 37.0699 58.3292C32.6349 58.9013 29.1744 58.8448 26.6179 54.4521C27.4513 53.1033 28.8708 52.3406 30.947 48.5694C32.1546 46.366 31.7097 47.4465 34.0897 46.5567C36.1377 45.794 35.9682 45.2361 37.2606 44.4239C42.317 47.616 46.5402 44.0355 49.9865 42.0157C52.8325 40.342 51.3636 41.7474 54.4003 41.7403C54.8099 44.0355 56.752 45.7516 58.9625 44.3533L59.0402 43.0256C57.9667 42.383 57.8255 42.8844 56.8791 42.3759C56.2506 41.133 56.752 41.2883 56.6037 40.0383C55.5868 38.6754 55.3537 39.0708 53.6376 39.431C53.4187 38.0256 53.447 36.6344 54.2591 35.7375C54.817 35.1231 56.8226 34.5369 55.5444 33.1245C54.9229 32.6514 51.4131 33.1386 51.2859 38.9649C49.5698 39.9253 49.9936 39.318 47.3877 41.1259C46.286 41.8816 44.9512 42.6725 43.3976 43.1669C37.9597 44.89 34.5628 39.6711 38.786 34.0355C40.6009 31.6203 43.3976 31.6556 44.8947 27.8774C45.5939 26.126 45.5021 24.544 46.0035 22.7432C47.2817 18.1458 52.317 15.4268 56.8226 20.0455C61.3142 24.657 66.3777 22.1147 65.6009 26.4226C65.4031 27.5031 64.9653 27.7856 63.913 27.9692C60.8057 28.513 58.9695 27.0228 56.8015 26.0906C55.9187 25.7093 55.156 25.6952 54.3085 25.4127C53.8919 23.8731 54.5133 23.2305 54.1108 21.8957C51.4342 20.9141 51.9992 24.4875 52.197 26.3378ZM25.7917 25.1796C25.149 29.2686 25.6081 32.5878 28.6518 34.0002C27.7408 40.2149 20.7917 39.1626 20.3397 39.2756C19.6829 39.4451 19.4711 39.9889 19.6688 40.5892C19.8736 41.2601 20.481 41.2601 21.1095 41.5426C20.4598 43.7671 19.7747 45.5327 21.0389 47.616C21.9923 47.7643 21.9075 47.7572 22.6843 47.4324C23.0021 45.8293 22.1476 45.4267 22.7973 43.2092C23.3694 41.2672 23.9626 41.4508 25.7352 40.7799C33.7224 37.7785 28.6165 27.6302 37.3382 25.9141C38.221 25.7446 38.7365 25.681 38.8707 24.9113C39.0473 23.8873 38.2422 23.8731 37.762 23.4777C38.1221 22.6796 37.988 22.6373 37.7761 21.8816C35.9188 21.2743 35.9682 22.3124 35.3962 23.7601C34.8948 25.0243 33.4117 24.424 31.4767 26.9381C29.9371 28.9296 29.8524 30.5257 29.0826 31.6627C27.2888 30.1867 27.31 27.5243 28.1434 24.9042C29.3298 21.1542 32.0628 19.5017 35.7563 19.4734C38.1716 19.4593 37.4301 19.0921 39.012 18.1316C41.2295 16.7828 43.7648 16.8887 45.9894 18.1811C45.5868 19.0497 44.2309 20.1443 43.6871 23.0469C43.2351 25.4409 43.3057 26.9664 41.9498 28.5906C40.9117 29.8477 33.8496 33.2305 34.7676 39.7417C35.1984 42.8279 37.9809 43.3575 30.8693 45.0595C29.2027 45.4621 29.3722 49.1485 24.3651 53.3858C21.2649 56.0129 16.957 57.1287 13.8355 53.7812C12.3242 52.1569 12.3736 50.4197 12.8256 48.068C13.101 46.6273 9.83127 39.1626 17.2112 35.2714C20.9753 33.287 18.8637 34.4522 20.0855 30.6033C20.8129 28.3293 22.9456 25.4904 25.7917 25.1796ZM17.4654 32.7573C13.0728 34.4169 9.60529 39.0073 10.0573 44.1344C10.1491 45.1654 10.3892 45.8575 10.5587 46.7615C10.7705 47.9409 10.3962 48.5129 10.3539 49.7135C10.1914 53.6894 12.3807 56.2389 15.1844 57.39C19.4499 59.1555 22.2112 57.0934 24.7818 55.8716C25.0996 56.2671 25.4456 56.825 25.7422 57.1499C30.5233 62.2628 34.6617 60.3631 37.6702 60.5256C39.7888 60.6386 41.971 61.7897 45.9894 60.7939C48.8354 60.0877 46.745 61.5143 52.1616 63.2233C55.4738 64.2685 56.2506 64.0284 58.2351 66.1753C60.7209 68.8518 59.4639 72.0086 60.2266 73.4351C60.8481 74.6074 65.848 75.9634 65.9752 71.8885C66.0599 69.1343 65.3749 66.486 64.2591 64.4521C66.5189 63.7388 68.4116 63.3151 69.7746 62.0086C70.9893 60.8434 72.2251 59.0355 72.6912 56.9521C73.1997 54.6852 72.8678 55.8575 74.1743 54.5793C75.4737 53.3081 76.7096 51.2177 76.9426 49.1979C77.3311 45.8646 80.0994 44.1979 77.4511 39.8477C76.5542 38.3717 78.7082 37.6231 76.6672 33.3364C75.3325 30.5327 71.7096 26.3661 67.8043 26.1048C67.9737 20.2926 61.7803 21.7333 59.3015 19.5017C58.6306 18.8943 58.0585 17.941 56.6885 16.9523C54.5345 15.3915 51.3989 15.0243 48.7436 16.246C47.7973 16.6839 47.9738 16.811 47.0275 16.3025C43.6024 14.4664 40.4738 14.424 37.2182 16.7616C35.721 17.835 35.8128 16.8958 32.9527 17.6443C30.1561 18.3717 28.2352 19.9607 27.1194 21.9452C26.0812 23.8025 24.3581 22.0794 20.6928 25.6175C18.8567 27.3901 17.8256 29.3604 17.4654 32.7573Z" fill="white" stroke="white" stroke-width="10" mask="url(#path-1-inside-1_228_194)"/>
<mask id="path-2-inside-2_228_194" fill="white">
<path fill-rule="evenodd" clip-rule="evenodd" d="M77.0052 6.24614L77.7185 7.53851C78.7708 10.2504 81.3414 16.4368 81.8993 18.4212C79.2722 18.0046 69.7171 15.434 67.9657 16.0766C67.4714 18.1529 68.8061 17.9975 70.7553 18.3718C73.3965 18.8803 83.4883 21.4933 84.3993 20.7306C84.7524 20.3492 84.8371 20.441 84.7524 19.6712C84.7241 19.4382 84.484 18.8308 84.364 18.5484L79.9431 7.24897C77.9586 2.12186 77.9374 1.57102 74.7454 5.68117C73.8626 6.81818 72.8457 7.75038 72.203 8.93681C70.2962 8.2871 64.7101 2.79983 53.1141 0.723563C39.922 -1.64931 26.6241 1.90294 16.5464 10.0738C15.2329 11.1473 13.9546 12.1925 12.8953 13.3012C9.74558 16.5992 6.72299 20.8294 4.58317 25.2362C4.17357 26.0907 4.0182 27.0865 5.04927 27.2913C6.10153 27.4961 6.38401 26.4862 6.77949 25.6882C12.1043 15.0456 22.9164 5.19389 38.0365 2.75039C50.0279 0.815371 60.6988 3.76734 70.0491 10.2645C70.6281 10.667 71.4897 11.5004 72.1324 11.5427C73.1493 11.5992 73.4036 10.6529 73.9403 10.0314C74.5264 9.36054 74.9643 8.88032 75.5222 8.1741C76.0307 7.52439 76.631 6.90998 77.0052 6.24614Z"/>
</mask>
<path fill-rule="evenodd" clip-rule="evenodd" d="M77.0052 6.24614L77.7185 7.53851C78.7708 10.2504 81.3414 16.4368 81.8993 18.4212C79.2722 18.0046 69.7171 15.434 67.9657 16.0766C67.4714 18.1529 68.8061 17.9975 70.7553 18.3718C73.3965 18.8803 83.4883 21.4933 84.3993 20.7306C84.7524 20.3492 84.8371 20.441 84.7524 19.6712C84.7241 19.4382 84.484 18.8308 84.364 18.5484L79.9431 7.24897C77.9586 2.12186 77.9374 1.57102 74.7454 5.68117C73.8626 6.81818 72.8457 7.75038 72.203 8.93681C70.2962 8.2871 64.7101 2.79983 53.1141 0.723563C39.922 -1.64931 26.6241 1.90294 16.5464 10.0738C15.2329 11.1473 13.9546 12.1925 12.8953 13.3012C9.74558 16.5992 6.72299 20.8294 4.58317 25.2362C4.17357 26.0907 4.0182 27.0865 5.04927 27.2913C6.10153 27.4961 6.38401 26.4862 6.77949 25.6882C12.1043 15.0456 22.9164 5.19389 38.0365 2.75039C50.0279 0.815371 60.6988 3.76734 70.0491 10.2645C70.6281 10.667 71.4897 11.5004 72.1324 11.5427C73.1493 11.5992 73.4036 10.6529 73.9403 10.0314C74.5264 9.36054 74.9643 8.88032 75.5222 8.1741C76.0307 7.52439 76.631 6.90998 77.0052 6.24614Z" fill="white"/>
<path d="M77.0052 6.24614L81.3828 3.83012L77.0519 -4.01695L72.6498 3.79044L77.0052 6.24614ZM77.7185 7.53851L82.3799 5.7298L82.2584 5.41661L82.0961 5.12249L77.7185 7.53851ZM81.8993 18.4212L81.1161 23.3595L88.8252 24.5822L86.7127 17.068L81.8993 18.4212ZM67.9657 16.0766L66.2433 11.3826L63.7234 12.3073L63.1017 14.9185L67.9657 16.0766ZM70.7553 18.3718L71.7005 13.462L71.6982 13.4615L70.7553 18.3718ZM84.3993 20.7306L87.609 24.5643L87.8524 24.3606L88.0681 24.1276L84.3993 20.7306ZM84.7524 19.6712L89.7224 19.1241L89.7194 19.0968L89.7161 19.0696L84.7524 19.6712ZM84.364 18.5484L79.7077 20.3701L79.734 20.4375L79.7623 20.5041L84.364 18.5484ZM79.9431 7.24897L75.2802 9.05376L75.2835 9.06226L75.2868 9.07074L79.9431 7.24897ZM74.7454 5.68117L70.7964 2.61429L70.796 2.61487L74.7454 5.68117ZM72.203 8.93681L70.5903 13.6696L74.588 15.0318L76.5995 11.3182L72.203 8.93681ZM53.1141 0.723563L52.2289 5.64459L52.2328 5.64529L53.1141 0.723563ZM16.5464 10.0738L13.3974 6.19L13.39 6.19607L13.3825 6.20217L16.5464 10.0738ZM12.8953 13.3012L9.28008 9.84718L9.27939 9.84791L12.8953 13.3012ZM4.58317 25.2362L0.0853877 23.0522L0.0798618 23.0636L0.0743937 23.075L4.58317 25.2362ZM5.04927 27.2913L4.07515 32.1955L4.08459 32.1973L4.09404 32.1992L5.04927 27.2913ZM6.77949 25.6882L2.30795 23.4509L2.30369 23.4594L2.29945 23.468L6.77949 25.6882ZM38.0365 2.75039L37.2399 -2.18575L37.2388 -2.18557L38.0365 2.75039ZM70.0491 10.2645L72.9029 6.15895L72.9022 6.15845L70.0491 10.2645ZM72.1324 11.5427L71.8034 16.5319L71.8292 16.5336L71.855 16.535L72.1324 11.5427ZM73.9403 10.0314L70.1749 6.74173L70.1655 6.75251L70.1562 6.76334L73.9403 10.0314ZM75.5222 8.1741L79.4456 11.2736L79.4527 11.2646L79.4597 11.2556L75.5222 8.1741ZM77.0052 6.24614L72.6277 8.66216L73.341 9.95453L77.7185 7.53851L82.0961 5.12249L81.3828 3.83012L77.0052 6.24614ZM77.7185 7.53851L73.0571 9.34723C73.5836 10.704 74.5386 13.0535 75.3448 15.0917C76.2262 17.3201 76.8926 19.0868 77.0859 19.7745L81.8993 18.4212L86.7127 17.068C86.3481 15.7713 85.4502 13.4525 84.6438 11.4136C83.7621 9.18452 82.9057 7.0849 82.3799 5.7298L77.7185 7.53851ZM81.8993 18.4212L82.6825 13.483C81.5036 13.296 78.9344 12.6495 75.6282 11.9577C74.1288 11.6439 72.5422 11.339 71.1706 11.1568C70.4895 11.0663 69.7613 10.9923 69.0701 10.977C68.5456 10.9654 67.3995 10.9584 66.2433 11.3826L67.9657 16.0766L69.6881 20.7706C68.9698 21.0342 68.5054 20.9669 68.849 20.9745C69.0258 20.9785 69.352 21.0031 69.854 21.0697C70.8486 21.2018 72.1434 21.4451 73.58 21.7457C76.146 22.2826 79.6679 23.1298 81.1161 23.3595L81.8993 18.4212ZM67.9657 16.0766L63.1017 14.9185C62.8922 15.7985 62.6741 17.1956 63.1349 18.7122C63.6842 20.52 64.927 21.6705 66.1415 22.3007C67.1246 22.8107 68.1135 22.991 68.5413 23.0681C69.4293 23.228 69.1554 23.1559 69.8123 23.2821L70.7553 18.3718L71.6982 13.4615C71.3757 13.3996 71.0792 13.3512 70.8476 13.314C70.5903 13.2728 70.4486 13.2507 70.3138 13.2264C69.9586 13.1625 70.2793 13.1817 70.7469 13.4243C71.0372 13.5749 71.449 13.8412 71.8456 14.2851C72.2575 14.7461 72.5419 15.2748 72.703 15.8049C72.9916 16.7549 72.7921 17.3929 72.8298 17.2347L67.9657 16.0766ZM70.7553 18.3718L69.8101 23.2817C71.2126 23.5517 73.8068 24.2107 77.201 24.9217C78.7123 25.2382 80.2945 25.5418 81.6071 25.7132C82.2462 25.7966 82.9761 25.8701 83.6673 25.869C84.0067 25.8685 84.489 25.851 85.0186 25.7548C85.4089 25.6839 86.5442 25.4558 87.609 24.5643L84.3993 20.7306L81.1896 16.8968C82.1405 16.1007 83.0902 15.9415 83.2313 15.9159C83.3861 15.8877 83.5006 15.8774 83.5578 15.8733C83.6183 15.869 83.652 15.8691 83.6523 15.869C83.654 15.869 83.6368 15.8691 83.5978 15.8672C83.5594 15.8654 83.5068 15.8622 83.4387 15.8566C83.3005 15.8452 83.1225 15.8262 82.9019 15.7974C81.9835 15.6774 80.7069 15.439 79.2512 15.1341C76.7115 14.6021 72.9392 13.7004 71.7005 13.462L70.7553 18.3718ZM84.3993 20.7306L88.0681 24.1276C88.0432 24.1545 88.026 24.1713 88.0323 24.1651C88.0416 24.1559 88.0422 24.1554 88.07 24.1281C88.0893 24.1092 88.1295 24.0698 88.1749 24.0238C88.3332 23.8633 88.891 23.3014 89.2953 22.4081C89.7092 21.4933 89.775 20.6667 89.7821 20.181C89.7885 19.7416 89.746 19.3384 89.7224 19.1241L84.7524 19.6712L79.7824 20.2184C79.8012 20.389 79.7798 20.263 79.7832 20.0347C79.7872 19.7602 79.8256 19.0788 80.1848 18.2851C80.5344 17.5126 81.01 17.0475 81.0558 17.0011C81.073 16.9836 81.0832 16.9737 81.0705 16.9862C81.0663 16.9903 81.033 17.0228 81.0064 17.0491C80.9407 17.114 80.8437 17.2113 80.7305 17.3335L84.3993 20.7306ZM84.7524 19.6712L89.7161 19.0696C89.6212 18.2871 89.3336 17.5354 89.2921 17.4212C89.177 17.1041 89.0526 16.7972 88.9656 16.5927L84.364 18.5484L79.7623 20.5041C79.7761 20.5366 79.7986 20.5907 79.8244 20.6557C79.8503 20.721 79.8742 20.7835 79.8931 20.8355C79.9023 20.8609 79.9085 20.8788 79.9122 20.8895C79.9161 20.9012 79.9145 20.8971 79.9092 20.8796C79.9049 20.8652 79.89 20.815 79.8715 20.7383C79.8619 20.6985 79.8489 20.6413 79.8351 20.57C79.8218 20.5009 79.804 20.3991 79.7887 20.2729L84.7524 19.6712ZM84.364 18.5484L89.0203 16.7266L84.5994 5.42719L79.9431 7.24897L75.2868 9.07074L79.7077 20.3701L84.364 18.5484ZM79.9431 7.24897L84.606 5.44418C84.1589 4.289 83.6971 3.05531 83.2727 2.14685C83.054 1.67868 82.738 1.05652 82.3003 0.459544C81.885 -0.106937 81.0591 -1.07097 79.6778 -1.63171C76.2979 -3.00378 73.7508 -0.681721 73.2278 -0.197431C72.3917 0.576896 71.5424 1.65379 70.7964 2.61429L74.7454 5.68117L78.6943 8.74806C79.0834 8.24712 79.3843 7.86879 79.6293 7.57776C79.7493 7.4352 79.8427 7.32929 79.9142 7.25179C79.9493 7.2138 79.9761 7.18593 79.9952 7.16655C80.0145 7.14706 80.0233 7.13891 80.0224 7.13977C80.0216 7.14049 80.0072 7.15383 79.9799 7.17635C79.9527 7.1987 79.9073 7.23466 79.8444 7.27897C79.727 7.36166 79.4952 7.51126 79.1575 7.64899C78.8102 7.7906 78.3189 7.93231 77.7154 7.953C77.0925 7.97435 76.4778 7.86183 75.9164 7.63391C74.8613 7.20558 74.3427 6.5183 74.2358 6.37256C74.1066 6.19633 74.1003 6.13893 74.2125 6.37918C74.45 6.88755 74.7351 7.64538 75.2802 9.05376L79.9431 7.24897ZM74.7454 5.68117L70.796 2.61487C70.4395 3.07404 70.188 3.33033 69.5743 4.0524C69.0671 4.64915 68.3805 5.49575 67.8065 6.5554L72.203 8.93681L76.5995 11.3182C76.6681 11.1914 76.8114 10.9787 77.194 10.5285C77.4701 10.2036 78.1685 9.42531 78.6948 8.74748L74.7454 5.68117ZM72.203 8.93681L73.8157 4.20402C74.1204 4.30787 74.2128 4.39409 73.897 4.20326C73.636 4.04549 73.3038 3.82824 72.789 3.49052C71.8095 2.84802 70.4364 1.94724 68.7192 0.993768C65.2508 -0.932023 60.4352 -3.0451 53.9953 -4.19817L53.1141 0.723563L52.2328 5.64529C57.389 6.56849 61.1645 8.23718 63.8649 9.73652C65.232 10.4956 66.3377 11.2182 67.3043 11.8522C67.7624 12.1527 68.2701 12.487 68.7248 12.7618C69.1248 13.0035 69.8089 13.4033 70.5903 13.6696L72.203 8.93681ZM53.1141 0.723563L53.9992 -4.19746C39.3646 -6.82982 24.5962 -2.88984 13.3974 6.19L16.5464 10.0738L19.6954 13.9576C28.6519 6.69572 40.4795 3.5312 52.2289 5.64459L53.1141 0.723563ZM16.5464 10.0738L13.3825 6.20217C12.1227 7.23171 10.5916 8.47451 9.28008 9.84718L12.8953 13.3012L16.5105 16.7552C17.3177 15.9104 18.343 15.0628 19.7103 13.9455L16.5464 10.0738ZM12.8953 13.3012L9.27939 9.84791C5.79201 13.4995 2.46409 18.1535 0.0853877 23.0522L4.58317 25.2362L9.08095 27.4202C10.9819 23.5054 13.6992 19.6989 16.5112 16.7545L12.8953 13.3012ZM4.58317 25.2362L0.0743937 23.075C-0.253368 23.7587 -0.878637 25.2434 -0.698297 27.014C-0.595094 28.0273 -0.206052 29.2855 0.795597 30.3798C1.79506 31.4718 3.02599 31.9871 4.07515 32.1955L5.04927 27.2913L6.02339 22.3871C6.55702 22.4931 7.42072 22.8071 8.17212 23.628C8.92572 24.4514 9.18587 25.3688 9.25023 26.0007C9.30955 26.5831 9.21667 26.995 9.1789 27.1411C9.13512 27.3103 9.0925 27.3963 9.09195 27.3974L4.58317 25.2362ZM5.04927 27.2913L4.09404 32.1992C5.19933 32.4143 6.45985 32.3633 7.69746 31.8265C8.88321 31.3123 9.65636 30.5212 10.1218 29.9169C10.5666 29.3395 10.8497 28.7742 10.9913 28.4815C11.0669 28.3251 11.1384 28.1685 11.1776 28.0833C11.2261 27.9777 11.2462 27.9352 11.2595 27.9084L6.77949 25.6882L2.29945 23.468C2.21389 23.6406 2.13865 23.8042 2.09194 23.9058C2.03585 24.0278 2.01215 24.0795 1.98926 24.1268C1.93379 24.2414 2.00634 24.0655 2.19954 23.8146C2.4134 23.537 2.89391 23.0099 3.71839 22.6523C4.59472 22.2722 5.42534 22.2706 6.0045 22.3834L5.04927 27.2913ZM6.77949 25.6882L11.251 27.9254C15.9546 18.5245 25.5064 9.84021 38.8341 7.68635L38.0365 2.75039L37.2388 -2.18557C20.3265 0.547566 8.25404 11.5666 2.30795 23.4509L6.77949 25.6882ZM38.0365 2.75039L38.833 7.68654C49.4295 5.97662 58.8075 8.54174 67.1959 14.3705L70.0491 10.2645L72.9022 6.15845C62.5901 -1.00707 50.6264 -4.34588 37.2399 -2.18575L38.0365 2.75039ZM70.0491 10.2645L67.1952 14.37C67.195 14.3699 67.2339 14.3981 67.4386 14.5591C67.5945 14.6816 67.8641 14.8947 68.1533 15.1021C68.4373 15.3057 68.863 15.594 69.3756 15.8511C69.8496 16.0889 70.7065 16.4596 71.8034 16.5319L72.1324 11.5427L72.4613 6.55357C72.8733 6.58073 73.1972 6.66312 73.4083 6.73077C73.6214 6.79908 73.7748 6.87025 73.8587 6.91235C73.9452 6.95571 73.9969 6.98791 74.0082 6.99507C74.0209 7.00308 74.0132 6.99878 73.9804 6.97528C73.9016 6.91874 73.807 6.84533 73.6184 6.6971C73.5369 6.63302 73.4274 6.54692 73.3169 6.46235C73.2062 6.37763 73.0626 6.26997 72.9029 6.15895L70.0491 10.2645ZM72.1324 11.5427L71.855 16.535C72.9473 16.5957 74.0488 16.3839 75.0625 15.8605C76.0215 15.3653 76.661 14.7149 77.0467 14.2552C77.4004 13.8337 77.6808 13.3933 77.7524 13.2844C77.8899 13.0752 77.8366 13.1696 77.7244 13.2995L73.9403 10.0314L70.1562 6.76334C69.7756 7.20405 69.4893 7.64974 69.3964 7.79098C69.2375 8.03261 69.2902 7.94177 69.3862 7.82743C69.5141 7.67494 69.8658 7.28941 70.4743 6.97516C71.1376 6.63269 71.826 6.518 72.4097 6.55043L72.1324 11.5427ZM73.9403 10.0314L77.7056 13.3212C78.2288 12.7224 78.788 12.106 79.4456 11.2736L75.5222 8.1741L71.5988 5.07461C71.1406 5.65459 70.8241 5.99869 70.1749 6.74173L73.9403 10.0314ZM75.5222 8.1741L79.4597 11.2556C79.6916 10.9594 79.7531 10.9073 80.1814 10.3845C80.4892 10.009 80.9555 9.42045 81.3606 8.70185L77.0052 6.24614L72.6498 3.79044C72.6807 3.73568 72.6597 3.78629 72.4466 4.04631C72.3405 4.17587 72.2425 4.29104 72.0847 4.4792C71.9435 4.64757 71.7661 4.8608 71.5847 5.09256L75.5222 8.1741Z" fill="white" mask="url(#path-2-inside-2_228_194)"/>
<mask id="path-4-inside-3_228_194" fill="white">
<path fill-rule="evenodd" clip-rule="evenodd" d="M45.2187 87.8137C35.4659 87.8137 26.2992 84.6357 19.0888 79.0708C16.5888 77.1357 16.3558 80.3702 13.1637 83.2515L12.4998 82.0157C12.295 81.5213 12.0549 80.9987 11.8572 80.5044C11.0309 78.5129 8.44618 72.7572 8.15663 71.5002C10.4165 71.7403 20.7908 74.0284 21.9843 73.6541C22.1961 73.5341 23.9264 71.9875 20.3247 71.3872L6.11568 68.986C4.10297 69.438 6.20749 72.6654 6.68771 73.8307L10.3106 82.4676C12.4716 87.5594 12.2809 87.6512 15.4447 84.0566C16.2498 83.1385 16.8995 82.1287 17.8953 81.1329C18.3473 81.2176 22.6834 84.1414 24.5337 85.0383C38.6226 91.8603 53.2907 91.6908 67.0618 84.2614C73.7285 80.6597 79.3146 74.9959 83.2906 68.64C83.7143 67.955 85.8753 64.3604 85.7623 63.5412C85.6705 62.8561 84.9784 62.3406 84.1592 62.8279C83.6366 63.1386 82.6762 65.2926 82.2454 66.0976C80.4798 69.3603 78.8909 71.1682 76.6381 73.8236C70.5717 80.9917 58.6438 87.8137 45.2187 87.8137Z"/>
</mask>
<path fill-rule="evenodd" clip-rule="evenodd" d="M45.2187 87.8137C35.4659 87.8137 26.2992 84.6357 19.0888 79.0708C16.5888 77.1357 16.3558 80.3702 13.1637 83.2515L12.4998 82.0157C12.295 81.5213 12.0549 80.9987 11.8572 80.5044C11.0309 78.5129 8.44618 72.7572 8.15663 71.5002C10.4165 71.7403 20.7908 74.0284 21.9843 73.6541C22.1961 73.5341 23.9264 71.9875 20.3247 71.3872L6.11568 68.986C4.10297 69.438 6.20749 72.6654 6.68771 73.8307L10.3106 82.4676C12.4716 87.5594 12.2809 87.6512 15.4447 84.0566C16.2498 83.1385 16.8995 82.1287 17.8953 81.1329C18.3473 81.2176 22.6834 84.1414 24.5337 85.0383C38.6226 91.8603 53.2907 91.6908 67.0618 84.2614C73.7285 80.6597 79.3146 74.9959 83.2906 68.64C83.7143 67.955 85.8753 64.3604 85.7623 63.5412C85.6705 62.8561 84.9784 62.3406 84.1592 62.8279C83.6366 63.1386 82.6762 65.2926 82.2454 66.0976C80.4798 69.3603 78.8909 71.1682 76.6381 73.8236C70.5717 80.9917 58.6438 87.8137 45.2187 87.8137Z" fill="white"/>
<path d="M19.0888 79.0708L16.0284 83.0247L16.0339 83.029L19.0888 79.0708ZM13.1637 83.2515L8.7589 85.6175L11.7779 91.2381L16.5139 86.9631L13.1637 83.2515ZM12.4998 82.0157L7.88056 83.9294L7.97647 84.1609L8.09506 84.3817L12.4998 82.0157ZM11.8572 80.5044L16.4996 78.6474L16.4877 78.6178L16.4755 78.5883L11.8572 80.5044ZM8.15663 71.5002L8.68491 66.5281L1.70976 65.787L3.28421 72.6225L8.15663 71.5002ZM21.9843 73.6541L23.4805 78.425L23.9872 78.2661L24.4493 78.0042L21.9843 73.6541ZM20.3247 71.3872L19.4916 76.3173L19.5027 76.3191L20.3247 71.3872ZM6.11568 68.986L6.9488 64.0559L5.9794 63.8921L5.02015 64.1075L6.11568 68.986ZM6.68771 73.8307L2.0649 75.7358L2.07086 75.7503L2.07691 75.7647L6.68771 73.8307ZM10.3106 82.4676L5.69978 84.4017L5.70384 84.4114L5.70795 84.421L10.3106 82.4676ZM15.4447 84.0566L19.198 87.3601L19.204 87.3532L15.4447 84.0566ZM17.8953 81.1329L18.8167 76.2185L16.2246 75.7325L14.3598 77.5974L17.8953 81.1329ZM24.5337 85.0383L22.3528 89.5375L22.3547 89.5385L24.5337 85.0383ZM67.0618 84.2614L69.4358 88.6619L69.4384 88.6605L67.0618 84.2614ZM83.2906 68.64L87.5295 71.2917L87.5362 71.281L87.5428 71.2703L83.2906 68.64ZM85.7623 63.5412L80.8066 64.2053L80.8079 64.2148L80.8092 64.2243L85.7623 63.5412ZM84.1592 62.8279L86.7146 67.1256L86.7153 67.1251L84.1592 62.8279ZM82.2454 66.0976L86.6428 68.4772L86.6484 68.4669L86.6539 68.4566L82.2454 66.0976ZM76.6381 73.8236L72.8254 70.5889L72.8214 70.5936L76.6381 73.8236ZM45.2187 87.8137V82.8137C36.5505 82.8137 28.4627 79.9895 22.1437 75.1125L19.0888 79.0708L16.0339 83.029C24.1358 89.282 34.3812 92.8137 45.2187 92.8137V87.8137ZM19.0888 79.0708L22.1492 75.1168C21.0938 74.2999 19.1613 73.1337 16.672 73.5815C14.3829 73.9932 13.035 75.5637 12.5393 76.1606C12.0868 76.7055 11.306 77.8161 11.0879 78.1062C10.6837 78.6439 10.2865 79.113 9.81341 79.54L13.1637 83.2515L16.5139 86.9631C17.6369 85.9494 18.4658 84.9337 19.0813 84.115C19.376 83.7229 19.6524 83.3337 19.8384 83.0756C20.0523 82.7788 20.1611 82.6352 20.2323 82.5494C20.3083 82.4579 20.2179 82.5856 19.981 82.7654C19.7153 82.9672 19.1949 83.2881 18.4424 83.4235C16.7997 83.719 15.8338 82.8741 16.0284 83.0247L19.0888 79.0708ZM13.1637 83.2515L17.5685 80.8855L16.9046 79.6497L12.4998 82.0157L8.09506 84.3817L8.7589 85.6175L13.1637 83.2515ZM12.4998 82.0157L17.1191 80.102C16.755 79.2231 16.7387 79.2452 16.4996 78.6474L11.8572 80.5044L7.2148 82.3613C7.37115 82.7522 7.83506 83.8195 7.88056 83.9294L12.4998 82.0157ZM11.8572 80.5044L16.4755 78.5883C16.0593 77.5852 15.1408 75.4936 14.4059 73.7679C14.0181 72.8571 13.6618 72.0041 13.3897 71.3167C13.0633 70.4924 13.0013 70.2573 13.029 70.3779L8.15663 71.5002L3.28421 72.6225C3.45676 73.3716 3.82641 74.3273 4.09192 74.9979C4.41166 75.8055 4.80754 76.7516 5.20537 77.6858C6.04184 79.6501 6.82881 81.432 7.2389 82.4205L11.8572 80.5044ZM8.15663 71.5002L7.62836 76.4722C8.50758 76.5656 11.2731 77.1207 14.5677 77.7254C16.0888 78.0046 17.6548 78.2792 18.9405 78.4603C19.5762 78.5499 20.2246 78.6284 20.8027 78.6675C21.0894 78.6869 21.4327 78.7019 21.7888 78.6925C22.0487 78.6857 22.7244 78.6621 23.4805 78.425L21.9843 73.6541L20.4881 68.8832C20.8402 68.7728 21.1177 68.7333 21.2435 68.718C21.3863 68.7006 21.4869 68.697 21.5255 68.696C21.5974 68.6941 21.5932 68.6981 21.4776 68.6903C21.2511 68.6749 20.8756 68.6342 20.3355 68.5581C19.2697 68.408 17.8771 68.1658 16.373 67.8897C13.6172 67.3839 10.0656 66.6748 8.68491 66.5281L8.15663 71.5002ZM21.9843 73.6541L24.4493 78.0042C25.2203 77.5673 25.8346 76.9501 26.2394 76.4393C26.6627 75.9051 27.5498 74.6253 27.5837 72.7933C27.6258 70.522 26.3702 68.81 24.94 67.8399C23.7274 67.0173 22.3344 66.6532 21.1467 66.4552L20.3247 71.3872L19.5027 76.3191C20.1158 76.4213 19.8571 76.4756 19.3265 76.1156C19.0163 75.9053 18.5468 75.5066 18.1629 74.8445C17.7599 74.1495 17.5713 73.3683 17.5854 72.6081C17.6105 71.2529 18.2504 70.4197 18.4022 70.2281C18.5255 70.0726 18.6472 69.9478 18.7613 69.8443C18.8011 69.8082 19.0701 69.5585 19.5192 69.304L21.9843 73.6541ZM20.3247 71.3872L21.1578 66.4571L6.9488 64.0559L6.11568 68.986L5.28256 73.9162L19.4916 76.3173L20.3247 71.3872ZM6.11568 68.986L5.02015 64.1075C4.04902 64.3256 2.9481 64.8022 2.0119 65.7359C1.06524 66.68 0.588728 67.7908 0.388896 68.7725C0.039364 70.4896 0.489258 72.0158 0.720943 72.7145C1.00259 73.5639 1.37726 74.3477 1.62788 74.8562C1.72678 75.0568 1.91667 75.434 1.96387 75.5291C2.06205 75.727 2.07776 75.767 2.0649 75.7358L6.68771 73.8307L11.3105 71.9255C11.1776 71.603 11.0225 71.2873 10.9215 71.0838C10.7696 70.7777 10.732 70.708 10.5975 70.4351C10.3814 69.9966 10.2657 69.7268 10.2127 69.5672C10.1895 69.497 10.213 69.5486 10.2342 69.6952C10.253 69.8259 10.299 70.2217 10.1879 70.7672C10.0663 71.3645 9.75187 72.1399 9.07349 72.8165C8.40556 73.4826 7.67916 73.7595 7.2112 73.8646L6.11568 68.986ZM6.68771 73.8307L2.07691 75.7647L5.69978 84.4017L10.3106 82.4676L14.9214 80.5336L11.2985 71.8966L6.68771 73.8307ZM10.3106 82.4676L5.70795 84.421C6.19042 85.5578 6.68111 86.7561 7.11067 87.6121C7.3322 88.0535 7.66176 88.6632 8.11925 89.2453C8.56038 89.8067 9.44244 90.7605 10.8921 91.2534C12.5157 91.8054 14.0001 91.5034 15.0316 91.0446C15.9307 90.6447 16.594 90.0856 16.9681 89.7469C17.6965 89.0872 18.5202 88.1302 19.198 87.3601L15.4447 84.0566L11.6915 80.7531C11.2785 81.2224 10.9726 81.5715 10.7068 81.8636C10.4342 82.163 10.3033 82.2914 10.2553 82.3348C10.1685 82.4134 10.4313 82.1462 10.9678 81.9076C11.2713 81.7726 11.7238 81.6185 12.2973 81.5674C12.8941 81.5143 13.515 81.583 14.1111 81.7857C15.2518 82.1735 15.8406 82.8866 15.9818 83.0663C16.1393 83.2668 16.1624 83.354 16.0484 83.127C15.9494 82.9296 15.8146 82.6333 15.6146 82.1687C15.4121 81.6981 15.1998 81.1894 14.9132 80.5142L10.3106 82.4676ZM15.4447 84.0566L19.204 87.3532C19.7213 86.7634 20.2245 86.1008 20.5255 85.7189C20.8754 85.2749 21.143 84.9563 21.4308 84.6684L17.8953 81.1329L14.3598 77.5974C13.6518 78.3053 13.0967 78.9895 12.6716 79.5289C12.1975 80.1304 11.9733 80.4317 11.6854 80.76L15.4447 84.0566ZM17.8953 81.1329L16.9739 86.0473C16.5837 85.9741 16.2976 85.8697 16.1978 85.8324C16.0676 85.7837 15.9733 85.7412 15.9312 85.7218C15.8482 85.6835 15.8121 85.6625 15.849 85.6825C15.9163 85.7191 16.0552 85.7987 16.2865 85.9378C16.7434 86.2125 17.3405 86.5857 18.0485 87.0262C19.3195 87.8171 21.1326 88.9461 22.3528 89.5375L24.5337 85.0383L26.7146 80.539C26.0846 80.2336 24.8044 79.4522 23.3318 78.5358C22.6679 78.1227 21.9807 77.6931 21.4396 77.3677C21.1719 77.2068 20.8834 77.037 20.6199 76.894C20.4913 76.8242 20.3139 76.7308 20.1169 76.6399C20.0457 76.6072 19.5095 76.3484 18.8167 76.2185L17.8953 81.1329ZM24.5337 85.0383L22.3547 89.5385C37.8529 97.0429 54.216 96.8728 69.4358 88.6619L67.0618 84.2614L64.6878 79.861C52.3654 86.5088 39.3924 86.6777 26.7127 80.5381L24.5337 85.0383ZM67.0618 84.2614L69.4384 88.6605C76.9808 84.5857 83.1686 78.263 87.5295 71.2917L83.2906 68.64L79.0516 65.9883C75.4606 71.7289 70.4761 76.7338 64.6852 79.8624L67.0618 84.2614ZM83.2906 68.64L87.5428 71.2703C87.7857 70.8777 88.4922 69.7084 89.1403 68.4923C89.459 67.8943 89.8155 67.1884 90.0972 66.514C90.2358 66.182 90.399 65.7571 90.5259 65.2968C90.6096 64.9934 90.8758 64.021 90.7154 62.858L85.7623 63.5412L80.8092 64.2243C80.7322 63.6659 80.7783 63.2372 80.8034 63.052C80.8324 62.8395 80.8707 62.6931 80.8859 62.6379C80.9147 62.5336 80.9242 62.5293 80.8696 62.6602C80.7646 62.9117 80.5756 63.3008 80.3152 63.7894C79.805 64.7467 79.2192 65.7173 79.0383 66.0097L83.2906 68.64ZM85.7623 63.5412L90.718 62.877C90.4812 61.1099 89.44 59.3255 87.5935 58.3369C85.5665 57.2517 83.3182 57.5105 81.6031 58.5306L84.1592 62.8279L86.7153 67.1251C85.8194 67.658 84.3267 67.9309 82.8736 67.1529C81.6009 66.4715 80.9516 65.2874 80.8066 64.2053L85.7623 63.5412ZM84.1592 62.8279L81.6038 58.5302C80.8444 58.9817 80.3531 59.531 80.1441 59.7755C79.8846 60.0791 79.6763 60.3764 79.5261 60.6042C79.2252 61.0606 78.9556 61.548 78.7499 61.9361C78.5356 62.3405 78.3322 62.749 78.1738 63.0683C77.9937 63.4311 77.8982 63.624 77.8368 63.7387L82.2454 66.0976L86.6539 68.4566C86.8079 68.1688 86.994 67.7905 87.1316 67.5133C87.2907 67.1925 87.4409 66.8922 87.5858 66.6187C87.7394 66.3288 87.8349 66.1692 87.8745 66.1091C87.8945 66.0787 87.8504 66.1505 87.7451 66.2736C87.6897 66.3384 87.5894 66.4504 87.4451 66.5834C87.3086 66.7092 87.0642 66.9177 86.7146 67.1256L84.1592 62.8279ZM82.2454 66.0976L77.8479 63.7181C76.3629 66.4625 75.1026 67.9048 72.8254 70.5889L76.6381 73.8236L80.4507 77.0583C82.6792 74.4317 84.5968 72.2582 86.6428 68.4772L82.2454 66.0976ZM76.6381 73.8236L72.8214 70.5936C67.6406 76.7153 57.0762 82.8137 45.2187 82.8137V87.8137V92.8137C60.2114 92.8137 73.5028 85.268 80.4547 77.0537L76.6381 73.8236Z" fill="white" mask="url(#path-4-inside-3_228_194)"/>
<mask id="path-6-inside-4_228_194" fill="white">
<path fill-rule="evenodd" clip-rule="evenodd" d="M86.8436 56.2601C88.1501 56.5849 88.5597 56.479 88.8846 55.0736C89.393 52.8773 90.8055 43.0963 89.5484 42.2135C87.4368 41.7333 87.8111 43.1033 87.8323 44.77C87.8818 49.3392 86.3775 54.8335 86.8436 56.2601Z"/>
</mask>
<path fill-rule="evenodd" clip-rule="evenodd" d="M86.8436 56.2601C88.1501 56.5849 88.5597 56.479 88.8846 55.0736C89.393 52.8773 90.8055 43.0963 89.5484 42.2135C87.4368 41.7333 87.8111 43.1033 87.8323 44.77C87.8818 49.3392 86.3775 54.8335 86.8436 56.2601Z" fill="white"/>
<path d="M86.8436 56.2601L82.0909 57.813L82.9506 60.4443L85.6371 61.1123L86.8436 56.2601ZM88.8846 55.0736L84.0134 53.9459L84.013 53.9476L88.8846 55.0736ZM89.5484 42.2135L92.4219 38.1217L91.6167 37.5562L90.6572 37.338L89.5484 42.2135ZM87.8323 44.77L92.832 44.7159L92.8319 44.7065L87.8323 44.77ZM86.8436 56.2601L85.6371 61.1123C86.0189 61.2073 86.658 61.3573 87.365 61.4002C88.1073 61.4453 89.3091 61.4005 90.5646 60.7384C93.0877 59.4077 93.6202 56.7879 93.7561 56.1997L88.8846 55.0736L84.013 53.9476C83.9652 54.1543 83.9902 53.9513 84.1692 53.6046C84.3859 53.1845 84.8995 52.4206 85.8998 51.893C86.849 51.3924 87.6831 51.4011 87.971 51.4186C88.2236 51.4339 88.3216 51.4753 88.0501 51.4078L86.8436 56.2601ZM88.8846 55.0736L93.7557 56.2014C94.0775 54.8115 94.5853 51.5775 94.8577 48.6076C94.9944 47.1169 95.0905 45.5018 95.0437 44.1173C95.0209 43.4443 94.9592 42.6245 94.7781 41.8249C94.6871 41.4232 94.533 40.8751 94.2516 40.2956C93.9868 39.7502 93.4492 38.8431 92.4219 38.1217L89.5484 42.2135L86.6749 46.3054C85.8048 45.6943 85.4034 44.9671 85.2558 44.663C85.0916 44.3248 85.0355 44.0796 85.0252 44.0341C85.0054 43.9469 85.0358 44.0532 85.0494 44.4557C85.0753 45.222 85.0223 46.355 84.8995 47.6944C84.6527 50.3847 84.2001 53.1395 84.0134 53.9459L88.8846 55.0736ZM89.5484 42.2135L90.6572 37.338C89.821 37.1478 88.368 36.913 86.8089 37.4314C84.8202 38.0926 83.6583 39.6094 83.1592 41.0698C82.7737 42.198 82.7893 43.2675 82.7951 43.6713C82.7988 43.9318 82.8105 44.1963 82.8177 44.3693C82.8259 44.5685 82.8311 44.706 82.8327 44.8336L87.8323 44.77L92.8319 44.7065C92.8282 44.4174 92.8171 44.1474 92.8091 43.9546C92.8 43.7355 92.7954 43.6233 92.7941 43.5285C92.7897 43.2217 92.8397 43.6662 92.6219 44.3035C92.4881 44.6953 92.2252 45.2527 91.7184 45.7929C91.1915 46.3545 90.5666 46.7203 89.964 46.9206C88.928 47.2651 88.22 47.0391 88.4396 47.089L89.5484 42.2135ZM87.8323 44.77L82.8326 44.8241C82.8524 46.6498 82.5566 48.7748 82.2347 50.9674C82.0864 51.9781 81.9204 53.089 81.8308 54.033C81.7853 54.5125 81.7481 55.0584 81.7547 55.6046C81.7604 56.0802 81.7983 56.9175 82.0909 57.813L86.8436 56.2601L91.5964 54.7072C91.7724 55.246 91.7553 55.5995 91.7539 55.4838C91.7534 55.4386 91.7569 55.2855 91.7861 54.9779C91.8459 54.3478 91.9654 53.5321 92.1287 52.4196C92.4301 50.3662 92.8617 47.4594 92.832 44.7159L87.8323 44.77Z" fill="white" mask="url(#path-6-inside-4_228_194)"/>
<mask id="path-8-inside-5_228_194" fill="white">
<path fill-rule="evenodd" clip-rule="evenodd" d="M0.000757624 44.9889L0.170249 47.6089C1.03183 47.9126 1.19426 47.9267 2.02759 47.6372C2.25358 44.777 2.23945 41.6556 2.57137 39.1485C2.81148 37.3547 3.63775 35.1867 3.16459 33.7107C1.68861 33.3717 1.40612 33.6189 1.08832 35.0807C0.869399 36.0906 0.692846 37.1217 0.530417 38.1457C0.170249 40.4056 -0.0133666 42.6866 0.000757624 44.9889Z"/>
</mask>
<path fill-rule="evenodd" clip-rule="evenodd" d="M0.000757624 44.9889L0.170249 47.6089C1.03183 47.9126 1.19426 47.9267 2.02759 47.6372C2.25358 44.777 2.23945 41.6556 2.57137 39.1485C2.81148 37.3547 3.63775 35.1867 3.16459 33.7107C1.68861 33.3717 1.40612 33.6189 1.08832 35.0807C0.869399 36.0906 0.692846 37.1217 0.530417 38.1457C0.170249 40.4056 -0.0133666 42.6866 0.000757624 44.9889Z" fill="white"/>
<path d="M0.000757624 44.9889L-4.99915 45.0196L-4.99825 45.1658L-4.98881 45.3117L0.000757624 44.9889ZM0.170249 47.6089L-4.81932 47.9317L-4.60615 51.2269L-1.49183 52.3246L0.170249 47.6089ZM2.02759 47.6372L3.66864 52.3602L6.75472 51.2879L7.01205 48.031L2.02759 47.6372ZM2.57137 39.1485L-2.38443 38.4851L-2.38538 38.4923L2.57137 39.1485ZM3.16459 33.7107L7.92592 32.1843L7.05722 29.4745L4.28378 28.8375L3.16459 33.7107ZM1.08832 35.0807L-3.79756 34.0186L-3.79817 34.0214L1.08832 35.0807ZM0.530417 38.1457L5.4681 38.9326L5.46868 38.929L0.530417 38.1457ZM0.000757624 44.9889L-4.98881 45.3117L-4.81932 47.9317L0.170249 47.6089L5.15982 47.2862L4.99033 44.6661L0.000757624 44.9889ZM0.170249 47.6089L-1.49183 52.3246C-1.18263 52.4336 -0.178545 52.8196 1.00464 52.8444C2.25803 52.8707 3.28401 52.4938 3.66864 52.3602L2.02759 47.6372L0.386537 42.9142C0.20421 42.9775 0.237271 42.9601 0.351527 42.933C0.512464 42.8947 0.819979 42.8383 1.21438 42.8466C1.59866 42.8547 1.88013 42.9206 1.98484 42.9483C2.05032 42.9656 2.04831 42.9694 1.83233 42.8933L0.170249 47.6089ZM2.02759 47.6372L7.01205 48.031C7.13364 46.4921 7.1917 44.8661 7.25456 43.4883C7.32079 42.0365 7.39338 40.8224 7.52812 39.8047L2.57137 39.1485L-2.38538 38.4923C-2.58256 39.9816 -2.66887 41.5819 -2.73505 43.0326C-2.80461 44.5573 -2.85248 45.9221 -2.95688 47.2433L2.02759 47.6372ZM2.57137 39.1485L7.52717 39.8119C7.5584 39.5786 7.61709 39.2759 7.71821 38.8098C7.80554 38.4073 7.94414 37.7981 8.05059 37.2277C8.23566 36.2361 8.5788 34.2209 7.92592 32.1843L3.16459 33.7107L-1.59674 35.237C-1.71019 34.8831 -1.68909 34.6789 -1.69193 34.7636C-1.69457 34.8428 -1.71189 35.0299 -1.77968 35.3931C-1.85066 35.7734 -1.93407 36.1348 -2.05441 36.6895C-2.16097 37.1806 -2.2956 37.8215 -2.38443 38.4851L2.57137 39.1485ZM3.16459 33.7107L4.28378 28.8375C3.82488 28.7321 3.09856 28.5818 2.29681 28.5763C1.42435 28.5702 0.125695 28.732 -1.13527 29.5966C-2.36467 30.4395 -2.96841 31.5494 -3.26781 32.2593C-3.552 32.9332 -3.7072 33.6029 -3.79756 34.0186L1.08832 35.0807L5.97421 36.1429C6.04275 35.8276 6.04203 35.9182 5.94631 36.1452C5.83538 36.4082 5.45409 37.2034 4.51954 37.8442C3.55342 38.5066 2.62199 38.5788 2.22756 38.576C1.90382 38.5738 1.7663 38.5197 2.0454 38.5838L3.16459 33.7107ZM1.08832 35.0807L-3.79817 34.0214C-4.0466 35.1674 -4.24026 36.3058 -4.40784 37.3624L0.530417 38.1457L5.46868 38.929C5.62595 37.9375 5.7854 37.0138 5.97482 36.14L1.08832 35.0807ZM0.530417 38.1457L-4.40727 37.3587C-4.80833 39.8752 -5.01504 42.4299 -4.99915 45.0196L0.000757624 44.9889L5.00066 44.9582C4.9883 42.9433 5.14883 40.9359 5.4681 38.9326L0.530417 38.1457Z" fill="white" mask="url(#path-8-inside-5_228_194)"/>
<mask id="path-10-inside-6_228_194" fill="white">
<path fill-rule="evenodd" clip-rule="evenodd" d="M88.7931 36.9028C89.1815 35.8223 88.5459 30.1584 86.4272 31.5214C85.495 32.1288 86.4061 33.9649 86.632 34.9889C86.971 36.5567 87.0275 37.2912 88.7931 36.9028Z"/>
</mask>
<path fill-rule="evenodd" clip-rule="evenodd" d="M88.7931 36.9028C89.1815 35.8223 88.5459 30.1584 86.4272 31.5214C85.495 32.1288 86.4061 33.9649 86.632 34.9889C86.971 36.5567 87.0275 37.2912 88.7931 36.9028Z" fill="white"/>
<path d="M88.7931 36.9028L89.8674 41.786L92.5642 41.1927L93.4983 38.5942L88.7931 36.9028ZM86.4272 31.5214L83.722 27.3165L83.7099 27.3243L83.6978 27.3321L86.4272 31.5214ZM86.632 34.9889L91.5191 33.9323L91.5169 33.9218L91.5146 33.9114L86.632 34.9889ZM88.7931 36.9028L93.4983 38.5942C93.7914 37.7787 93.8565 37.0015 93.8805 36.6111C93.9108 36.1156 93.9046 35.6079 93.8769 35.1272C93.8224 34.1798 93.6684 33.0633 93.3753 31.9846C93.1332 31.0937 92.5946 29.4311 91.3045 28.1236C90.5696 27.3787 89.3868 26.5508 87.7536 26.3532C86.1013 26.1533 84.7039 26.6848 83.722 27.3165L86.4272 31.5214L89.1324 35.7264C88.6802 36.0174 87.7662 36.4276 86.5526 36.2808C85.3582 36.1363 84.5696 35.5357 84.1862 35.1471C83.8298 34.7859 83.6946 34.4894 83.6856 34.4702C83.6636 34.4234 83.6855 34.4605 83.7253 34.6069C83.8073 34.9089 83.8718 35.3257 83.8934 35.7016C83.8983 35.7866 83.9003 35.8576 83.9006 35.9126C83.9007 35.9398 83.9004 35.9611 83.9 35.9766C83.8996 35.9923 83.8992 35.9999 83.8992 35.9998C83.8992 35.9996 83.8993 35.9968 83.8998 35.9916C83.9002 35.9864 83.9009 35.9782 83.9021 35.9671C83.9043 35.946 83.9088 35.9079 83.9172 35.8554C83.9296 35.7783 83.9711 35.5361 84.0878 35.2114L88.7931 36.9028ZM86.4272 31.5214L83.6978 27.3321C81.9935 28.4425 81.2945 30.1035 81.0925 31.414C80.915 32.5657 81.086 33.5749 81.2024 34.1283C81.329 34.73 81.5063 35.2909 81.6048 35.6034C81.7426 36.0405 81.7529 36.0819 81.7495 36.0665L86.632 34.9889L91.5146 33.9114C91.3982 33.384 91.2099 32.8119 91.1424 32.5977C91.0357 32.2589 91.0011 32.1309 90.9882 32.0695C90.9652 31.96 91.069 32.3323 90.9759 32.9369C90.923 33.28 90.7955 33.7737 90.4865 34.3076C90.1635 34.8655 89.708 35.3515 89.1566 35.7108L86.4272 31.5214ZM86.632 34.9889L81.745 36.0456C81.797 36.2863 81.9167 36.8849 82.0551 37.3717C82.1929 37.8563 82.5193 38.9045 83.344 39.8894C85.5805 42.5604 88.7314 42.0359 89.8674 41.786L88.7931 36.9028L87.7187 32.0196C87.5163 32.0641 87.8749 31.9499 88.4981 32.0431C88.8542 32.0964 89.3134 32.2194 89.8011 32.4831C90.2985 32.7521 90.7028 33.1012 91.0111 33.4695C91.3043 33.8196 91.4706 34.1385 91.5565 34.3288C91.6005 34.4264 91.6296 34.5038 91.6466 34.5525C91.6637 34.6012 91.6724 34.6315 91.6737 34.6363C91.674 34.6371 91.662 34.5942 91.632 34.4581C91.5948 34.29 91.5765 34.1976 91.5191 33.9323L86.632 34.9889Z" fill="white" mask="url(#path-10-inside-6_228_194)"/>
<mask id="path-12-inside-7_228_194" fill="white">
<path fill-rule="evenodd" clip-rule="evenodd" d="M2.3317 58.5482L3.80062 58.4705C4.21728 57.0722 3.74412 56.5567 3.41926 55.1654C3.16503 54.1132 3.12972 52.7573 1.79498 52.955C0.0788791 53.2022 1.6043 57.4394 2.3317 58.5482Z"/>
</mask>
<path fill-rule="evenodd" clip-rule="evenodd" d="M2.3317 58.5482L3.80062 58.4705C4.21728 57.0722 3.74412 56.5567 3.41926 55.1654C3.16503 54.1132 3.12972 52.7573 1.79498 52.955C0.0788791 53.2022 1.6043 57.4394 2.3317 58.5482Z" fill="white"/>
<path d="M2.3317 58.5482L-1.84892 61.2909L-0.273065 63.6929L2.59575 63.5412L2.3317 58.5482ZM3.80062 58.4705L4.06467 63.4635L7.58554 63.2773L8.59241 59.8984L3.80062 58.4705ZM3.41926 55.1654L8.28829 54.0285L8.28392 54.0098L8.27942 53.9912L3.41926 55.1654ZM1.79498 52.955L2.50778 57.9039L2.51775 57.9025L2.52772 57.901L1.79498 52.955ZM2.3317 58.5482L2.59575 63.5412L4.06467 63.4635L3.80062 58.4705L3.53656 53.4775L2.06764 53.5552L2.3317 58.5482ZM3.80062 58.4705L8.59241 59.8984C9.04552 58.3777 9.05999 57.0319 8.76746 55.724C8.65766 55.2331 8.50524 54.7664 8.44453 54.5732C8.36634 54.3244 8.32414 54.182 8.28829 54.0285L3.41926 55.1654L-1.44976 56.3024C-1.32318 56.8445 -1.18442 57.2882 -1.09554 57.5711C-1.04651 57.7271 -1.02334 57.8002 -1.00249 57.8708C-0.984673 57.9311 -0.985184 57.9346 -0.991433 57.9067C-1.01029 57.8223 -1.04286 57.63 -1.03456 57.3882C-1.02669 57.159 -0.986836 57.0281 -0.991169 57.0427L3.80062 58.4705ZM3.41926 55.1654L8.27942 53.9912C8.21077 53.707 8.26965 53.9119 8.12884 53.2727C8.05203 52.924 7.88948 52.2211 7.54552 51.482C7.1869 50.7113 6.48053 49.5722 5.12853 48.7695C3.72012 47.9334 2.2434 47.834 1.06223 48.009L1.79498 52.955L2.52772 57.901C2.01392 57.9771 1.04214 57.973 0.0236999 57.3684C-0.938339 56.7973 -1.36973 56.0258 -1.5209 55.701C-1.65741 55.4076 -1.68004 55.2287 -1.63702 55.424C-1.61861 55.5075 -1.60329 55.5853 -1.56875 55.7554C-1.53968 55.8985 -1.49588 56.1121 -1.44089 56.3397L3.41926 55.1654ZM1.79498 52.955L1.08217 48.0061C-0.282945 48.2027 -1.56254 48.8692 -2.50528 49.9721C-3.36466 50.9775 -3.7092 52.0669 -3.85636 52.8273C-4.13363 54.2601 -3.91983 55.6286 -3.74647 56.455C-3.38959 58.1563 -2.62557 60.1071 -1.84892 61.2909L2.3317 58.5482L6.51232 55.8055C6.60148 55.9414 6.51644 55.8287 6.35438 55.4155C6.21379 55.0571 6.10023 54.6866 6.04052 54.402C5.95611 53.9996 6.06486 54.1931 5.9615 54.7272C5.90129 55.0384 5.71344 55.7475 5.09627 56.4695C4.39574 57.2891 3.44387 57.7691 2.50778 57.9039L1.79498 52.955Z" fill="white" mask="url(#path-12-inside-7_228_194)"/>
</svg>
