<svg width="40" height="39" viewBox="0 0 40 39" fill="none" xmlns="http://www.w3.org/2000/svg">
<path d="M39.6821 29.534C39.5033 28.9164 38.994 28.4376 38.3525 28.2858C35.595 27.6342 32.5446 26.3113 29.5317 24.4593C28.9908 24.1274 28.3027 24.0901 27.7361 24.3652C26.9123 24.7621 26.1626 25.2879 25.5053 25.9283C24.694 26.7187 24.0691 27.635 23.6439 28.6567C21.1602 27.036 18.7613 25.1021 16.5064 22.9036C14.2523 20.7051 12.2695 18.3654 10.607 15.9445C11.6554 15.5298 12.5965 14.9219 13.4086 14.1307C14.0651 13.4912 14.6043 12.7599 15.0129 11.9573C15.2949 11.4055 15.2575 10.7343 14.9163 10.2068C13.0184 7.26896 11.6621 4.29542 10.9956 1.60754C10.84 0.981833 10.3499 0.48516 9.71588 0.310675C8.31633 -0.0740022 6.83025 -0.101595 5.41739 0.228708C4.1127 0.533853 2.88456 1.14739 1.83116 2.03767C-0.43624 4.64844 -0.603486 8.9148 1.36021 14.0503C3.16081 18.7614 6.62722 23.7695 11.1204 28.1511C15.6128 32.5311 20.7492 35.9128 25.5827 37.6707C28.0206 38.5585 30.2672 39 32.2434 39C34.5374 39 36.4662 38.4051 37.9065 37.2178L37.9423 37.1837C38.8209 36.1912 39.4508 34.995 39.7637 33.7241C40.1048 32.3461 40.0757 30.8974 39.6821 29.534Z" fill="#0F4469"/>
</svg>
