<svg width="75" height="91" viewBox="0 0 75 91" fill="none" xmlns="http://www.w3.org/2000/svg">
<path d="M39.4131 1.09595C39.6998 1.02567 39.9621 1.06218 40.2109 1.18188C40.6574 1.39665 41.0629 1.87844 41.457 2.50122L41.625 2.77661L41.626 2.77759L45.7051 9.53931H45.7061C46.5337 10.9025 47.2821 12.2352 48.1309 13.5959L48.502 14.1809V14.1819C49.4515 15.6341 50.3982 17.1374 51.1768 18.6946L51.2148 18.7717H51.3008C51.8084 18.7717 52.4245 18.7361 53.0742 18.7004C53.726 18.6646 54.4146 18.6277 55.0742 18.6243C55.7345 18.6208 56.3604 18.6507 56.8877 18.7454C57.3522 18.8288 57.7245 18.9604 57.9775 19.1506L58.0791 19.2366C58.1941 19.3528 58.4092 19.6436 58.6729 20.0403C58.9356 20.4358 59.2398 20.9255 59.5283 21.426C59.817 21.9269 60.0888 22.4366 60.2881 22.8713C60.3877 23.0886 60.4681 23.2851 60.5234 23.4514C60.5798 23.6209 60.6064 23.7477 60.6064 23.8293C60.6064 24.444 60.1661 25.0981 59.5527 25.2815C58.9999 25.4466 58.2412 25.2414 57.4941 24.1096L57.3447 23.8704C56.9496 23.193 56.5638 22.5878 56.2295 21.9749L56.1895 21.9016H56.1074C54.832 21.9016 53.3185 22.0132 51.9785 21.9504C51.3126 21.9192 50.7036 21.8453 50.2061 21.6956C49.7696 21.5642 49.4316 21.3785 49.2119 21.1252L49.125 21.0129L40.2432 6.48853L40.0879 6.23462L39.9922 6.51685L36.9189 15.5696L36.8936 15.6458L36.9463 15.7063L43.708 23.3625L43.7109 23.3645C43.8804 23.5481 44.2108 23.8831 44.6074 24.2883C45.0054 24.695 45.4722 25.176 45.918 25.6565C46.3642 26.1376 46.7872 26.6159 47.0977 27.0178C47.253 27.219 47.3784 27.3984 47.4639 27.5471C47.5529 27.7022 47.5858 27.8021 47.5859 27.8528C47.5859 28.5143 47.4886 28.9266 47.3252 29.1868C47.1672 29.4384 46.9353 29.5653 46.6143 29.6301C46.2854 29.6966 45.8811 29.6946 45.3906 29.6946C45.027 29.6946 44.6228 29.6957 44.1855 29.7327L43.7373 29.7825H43.7363C42.9972 29.8919 41.9794 29.8516 40.9668 29.8235C40.0924 29.7992 39.2168 29.7837 38.5654 29.8967L38.3008 29.9534L38.2979 29.9543C38.2263 29.9748 38.1514 30.0182 38.0781 30.0706C38.003 30.1243 37.9209 30.1944 37.833 30.2766C37.657 30.4412 37.4512 30.6624 37.2275 30.9221C36.7797 31.4421 36.2518 32.1249 35.7305 32.8352C34.6895 34.2534 33.6633 35.7978 33.3506 36.3948L33.2441 36.5979H64.6143L64.5 36.3918C64.1349 35.7319 63.635 34.9596 63.1641 34.1868C62.6901 33.409 62.2427 32.6274 61.9717 31.9309C61.6971 31.2254 61.6209 30.6504 61.8223 30.259C62.0165 29.8821 62.5068 29.6125 63.54 29.6125C63.5785 29.6126 63.633 29.6271 63.7051 29.6663C63.7765 29.7051 63.8583 29.7649 63.9492 29.8459C64.1314 30.0085 64.3388 30.2456 64.5625 30.5393C65.0096 31.1262 65.5091 31.9206 65.9902 32.7434C66.4708 33.5652 66.9307 34.412 67.2988 35.1028C67.6653 35.7905 67.9445 36.3307 68.0576 36.5286L68.0977 36.5979H68.1777C68.587 36.5979 69.0737 36.5735 69.5811 36.55C70.0901 36.5265 70.6227 36.5036 71.1318 36.5071C71.6418 36.5105 72.1233 36.5406 72.5293 36.6194C72.9378 36.6987 73.2523 36.8247 73.4473 37.0071V37.0081L73.4512 37.011C74.0504 37.5321 74.1559 38.2061 73.8926 38.7454C73.6273 39.2881 72.9709 39.7287 71.9785 39.7288H23.8066C23.108 39.7288 22.5182 39.5004 22.1592 39.135C21.8058 38.7753 21.6637 38.2715 21.8701 37.678L21.8691 37.677C21.9732 37.392 22.1213 37.1879 22.3027 37.0383C22.4858 36.8875 22.7117 36.7864 22.9805 36.72C23.5256 36.5854 24.2168 36.5979 25.0361 36.5979C25.3246 36.5979 25.6901 36.6191 26.0938 36.6418C26.4957 36.6645 26.9336 36.6895 27.3594 36.6965C27.7848 36.7036 28.2037 36.6923 28.5674 36.6438C28.9269 36.5958 29.2516 36.5088 29.4756 36.3489L29.4941 36.3362L29.5078 36.3176L35.1494 28.553C35.3869 28.2456 35.5658 27.9763 35.7168 27.7708C35.8718 27.5598 36.005 27.4053 36.168 27.2893C36.45 27.0886 36.8481 26.9855 37.6729 26.9817L38.0537 26.9866H38.0566C38.9016 26.9866 39.536 26.9302 40.1719 26.8743C40.8069 26.8184 41.4443 26.763 42.3037 26.7629H42.4902L42.4375 26.5842C42.2873 26.0734 41.972 25.7175 41.6377 25.4045C41.2961 25.0848 40.9519 24.8223 40.6816 24.4709H40.6826L40.6758 24.4631L34.416 17.4778L34.415 17.4768L34.043 17.0579C33.9417 16.938 33.8618 16.8346 33.8008 16.7375C33.6837 16.5513 33.6394 16.3954 33.6484 16.2004C33.6579 15.9953 33.7269 15.7419 33.8555 15.3596C33.9192 15.17 33.9963 14.9528 34.0859 14.6975L34.3887 13.8147L34.3896 13.8127C34.9439 12.0946 35.7878 9.95205 36.1807 8.21216L36.2334 7.97778L36.0039 8.04907C35.7933 8.11394 35.5151 8.30593 35.2158 8.54712C34.9107 8.79303 34.5638 9.10639 34.2109 9.43481C33.5883 10.0143 32.9502 10.6371 32.4678 11.0422L32.2715 11.2014L32.2705 11.2024C31.3539 11.9246 30.6993 12.4223 30.2217 12.9426C29.7975 13.4048 29.5119 13.8846 29.2939 14.553L29.2051 14.8508V14.8518C28.7032 16.6921 28.2542 18.205 27.8066 20.051C27.4691 21.4011 27.2421 22.4072 27.041 23.1985C26.841 23.9855 26.6744 24.5246 26.4697 24.9172C26.2687 25.3028 26.0312 25.5464 25.6816 25.7395C25.4136 25.8875 25.0787 26.0068 24.6387 26.134L24.1621 26.2649L24.1582 26.2668L16.3916 28.5569C15.9469 28.6819 15.5996 28.7693 15.3213 28.8391C15.0448 28.9085 14.83 28.9626 14.6592 29.0208C14.4863 29.0796 14.3495 29.1458 14.2285 29.2434C14.108 29.3406 14.0109 29.4625 13.9092 29.6223L13.9033 29.6311L13.8994 29.6409L10.8818 36.4026L10.7939 36.5979H11.0088C12.1407 36.5979 13.3867 36.5556 14.5391 36.5823L15.0264 36.5979H15.0273C15.7127 36.6248 16.1793 36.8427 16.4688 37.137C16.7582 37.4313 16.8825 37.8146 16.8633 38.1985C16.8247 38.9698 16.2087 39.7288 15.2002 39.7288H2.17969C1.53238 39.7288 1.06022 39.567 0.736328 39.3274C0.412968 39.0881 0.228695 38.7646 0.165039 38.4241C0.0369441 37.7381 0.396362 36.9832 1.11035 36.7014C1.35411 36.6117 1.77506 36.5564 2.30762 36.5276C2.8353 36.499 3.45653 36.4966 4.09082 36.5071C5.34996 36.5278 6.68071 36.5979 7.37695 36.5979H7.4668L7.50391 36.5168L10.1855 30.593L10.1875 30.5901C10.6068 29.6118 10.8878 28.8835 11.1123 28.3401C11.3388 27.7917 11.506 27.4351 11.7002 27.175C12.0792 26.6676 12.5707 26.5103 13.9561 26.0862L13.9551 26.0852C16.7328 25.2756 18.7039 24.7636 20.1211 24.3792C21.5321 23.9964 22.4089 23.7381 22.9775 23.4358C23.2655 23.2827 23.4807 23.1155 23.6484 22.9114C23.8158 22.7076 23.9307 22.4728 24.0273 22.1946C24.1233 21.9183 24.2035 21.5912 24.2988 21.2004C24.3947 20.8075 24.5073 20.3447 24.667 19.7893C25.2571 17.773 25.7542 15.7808 26.3193 13.8518L26.5664 13.0286V13.0266C26.817 12.1633 26.9782 11.8554 27.1924 11.6223C27.3037 11.5012 27.4303 11.3985 27.6074 11.2473C27.7806 11.0995 27.9919 10.9131 28.2578 10.634L38.4277 1.69263L38.4307 1.6897C38.797 1.35046 39.1229 1.16711 39.4131 1.09595Z" fill="white" stroke="white" stroke-width="0.27851"/>
<path d="M63.9785 43.0058C64.3257 42.7808 64.6594 42.779 64.957 42.8906C65.2611 43.0046 65.5319 43.2392 65.7275 43.4911C65.8247 43.6164 65.9008 43.7431 65.9521 43.8554C66.0048 43.9705 66.0264 44.0602 66.0264 44.1152C66.0264 44.7322 65.8516 45.3417 65.6104 45.9345C65.489 46.2327 65.3526 46.5223 65.2148 46.8046L64.8105 47.6318L64.8076 47.6367L60.7842 57.081C59.6661 59.6248 58.9628 61.4386 58.4316 62.7187C57.8965 64.0083 57.5426 64.7374 57.126 65.1542C56.7247 65.5555 56.2529 65.6764 55.4248 65.6884C55.0095 65.6944 54.5136 65.6733 53.8994 65.6503C53.2866 65.6274 52.5603 65.6025 51.6914 65.6025H51.5986L51.5625 65.6894L46.2539 78.6542L46.2529 78.6562C45.8061 79.8011 45.3598 80.8899 44.9131 81.9648L43.5713 85.1923L43.5703 85.1962C43.3471 85.782 43.1381 86.2973 42.9219 86.8203L42.2305 88.4902L42.2295 88.4911C41.7991 89.5601 41.3874 90.1832 41 90.5029C40.8085 90.6609 40.6255 90.7427 40.4502 90.7704C40.2748 90.7983 40.0975 90.7738 39.915 90.704C39.5445 90.5623 39.1662 90.24 38.7744 89.83C38.5774 89.6238 38.3836 89.4029 38.1895 89.1786L37.6006 88.5048C37.3998 88.2481 37.213 88.075 37.0264 87.9023C36.8853 87.7717 36.7433 87.6406 36.5898 87.4687L36.4326 87.2822L36.4287 87.2773L29.499 79.3417L29.4912 79.3339L28.918 78.7734C28.3994 78.256 28.0351 77.8497 27.7441 77.3954C27.3581 76.7926 27.097 76.0975 26.791 74.9296L23.1025 60.1757H23.1035L23.0986 60.163L22.9521 59.7119C22.9415 59.6747 22.9323 59.6431 22.9258 59.623C22.9225 59.6128 22.9177 59.5977 22.9102 59.5829C22.9024 59.5678 22.8865 59.5416 22.8564 59.5214C22.8249 59.5004 22.7935 59.4959 22.7773 59.4951H22.7529C22.752 59.4951 22.7503 59.4955 22.7451 59.4941C22.7264 59.489 22.6698 59.4663 22.5498 59.373L22.542 59.3671L22.5322 59.3613L16.2178 55.8408H16.2168C15.3205 55.2948 14.6197 54.9373 14.0537 54.6591C13.4833 54.3787 13.0621 54.1839 12.7109 53.9589C12.1137 53.5762 11.7179 53.1044 11.2002 51.9316L10.9697 51.3837C10.8574 51.1029 10.6331 50.5705 10.3613 49.9189C10.089 49.2659 9.76791 48.491 9.46094 47.7236C9.15393 46.956 8.86193 46.1971 8.64648 45.5751C8.53872 45.264 8.45047 44.9886 8.38965 44.7646C8.32774 44.5366 8.29793 44.3745 8.29785 44.2831C8.29785 43.7628 8.65945 43.2879 9.16699 43.0536C9.63817 42.8364 10.2169 42.8353 10.709 43.1943L10.8066 43.2714L10.8086 43.2724C10.9411 43.3809 11.0842 43.5786 11.2305 43.8417C11.375 44.102 11.5158 44.4145 11.6475 44.7402C11.7792 45.0661 11.9009 45.4024 12.0068 45.7099L12.2734 46.5068L12.2754 46.5126C12.3722 46.7617 12.5112 47.1596 12.6797 47.6308C12.8475 48.1001 13.0433 48.639 13.2539 49.162C13.4643 49.6844 13.6905 50.1952 13.918 50.6083C14.0316 50.8148 14.147 50.9996 14.2627 51.1503C14.3772 51.2995 14.4986 51.4231 14.625 51.499L14.6963 51.3798L14.625 51.4999L14.6299 51.5019L19.3242 54.0732V54.0722C19.8584 54.3812 21.2871 55.1385 22.6211 55.8749C23.2911 56.2449 23.9384 56.6109 24.4424 56.915C24.6945 57.0671 24.9094 57.2027 25.0723 57.3154C25.1569 57.3739 25.2238 57.4234 25.2734 57.4638L25.3721 57.5566L25.376 57.5615C25.3992 57.589 25.4392 57.6606 25.4941 57.79C25.547 57.9144 25.6084 58.0788 25.6768 58.2792C25.8135 58.6799 25.9773 59.217 26.1582 59.8505C26.52 61.1172 26.9504 62.7624 27.3799 64.456C27.8097 66.1508 28.2376 67.891 28.5928 69.3476L29.3711 72.538V72.539C29.4821 72.9692 29.5656 73.3512 29.6416 73.6972C29.7174 74.042 29.7864 74.3542 29.8682 74.6386C30.0123 75.1397 30.1977 75.5627 30.5371 75.956L30.6924 76.123L37.5049 83.7734C37.7277 84.0518 37.8822 84.2342 38.043 84.416L38.623 85.0595C38.7928 85.2848 39.0695 85.6182 39.1865 85.7353C39.2646 85.8133 39.3002 85.8619 39.3193 85.8915C39.3299 85.908 39.3359 85.9179 39.3457 85.9345C39.3543 85.949 39.3679 85.9723 39.3896 85.9941C39.4346 86.0389 39.4934 86.0584 39.5518 86.0761C39.6146 86.0952 39.7131 86.1211 39.8633 86.162L39.9824 86.1943L40.0293 86.081L45.6738 72.2773V72.2763C46.8503 69.3491 47.6146 67.296 48.2119 65.8398C48.8101 64.3816 49.2248 63.5656 49.6865 63.1103C50.1327 62.6705 50.6335 62.5584 51.4609 62.5644C51.8771 62.5674 52.366 62.5994 52.9658 62.6318C53.5636 62.664 54.2658 62.6962 55.1006 62.6962H55.2285L55.2393 62.5683C55.2448 62.5016 55.2737 62.3829 55.3271 62.2148C55.3795 62.0502 55.4524 61.8484 55.54 61.6201C55.7154 61.1634 55.9482 60.6062 56.1924 60.041C56.4374 59.4739 56.6915 58.9029 56.9092 58.4169L57.4072 57.3036L57.4082 57.3027L62.8848 44.5615V44.5605C63.2428 43.7068 63.624 43.2357 63.9785 43.0058Z" fill="white" stroke="white" stroke-width="0.27851"/>
</svg>
