<?xml version="1.0" encoding="UTF-8"?>
<!DOCTYPE svg PUBLIC "-//W3C//DTD SVG 1.1//EN" "http://www.w3.org/Graphics/SVG/1.1/DTD/svg11.dtd">
<!-- Creator: CorelDRAW X7 -->
<svg xmlns="http://www.w3.org/2000/svg" xml:space="preserve" width="115.449mm" height="101.143mm" version="1.1" style="shape-rendering:geometricPrecision; text-rendering:geometricPrecision; image-rendering:optimizeQuality; fill-rule:evenodd; clip-rule:evenodd"
viewBox="0 0 1404 1230"
 xmlns:xlink="http://www.w3.org/1999/xlink">
 <defs>
  <style type="text/css">
   <![CDATA[
    .fil1 {fill:#0C2744}
    .fil0 {fill:#0C2744;fill-rule:nonzero}
   ]]>
  </style>
 </defs>
 <g id="Layer_x0020_1">
  <metadata id="CorelCorpID_0Corel-Layer"/>
  <path class="fil0" d="M209 1230l0 -280 139 -168 58 1 0 284 448 0c83,0 150,-67 150,-150l0 0c0,-57 -31,-107 -78,-132l90 -124c51,14 65,22 104,62 82,85 98,230 45,332 -86,168 -291,175 -457,175l-499 0zm0 -503l0 -616 490 0c100,0 183,2 244,25 60,22 107,64 141,111 10,14 18,28 25,42l-166 218c1,-4 1,-8 1,-12l0 -68c0,-80 -66,-146 -146,-146l-392 0 0 344 -111 1 -86 101z"/>
  <path class="fil1" d="M1037 156c55,10 103,28 143,54l-319 420 -562 4 -297 352 -2 204 344 -416 576 4 365 -501c41,28 70,73 93,127l26 -404 -367 156z"/>
 </g>
</svg>
