<svg width="121" height="106" viewBox="0 0 121 106" fill="none" xmlns="http://www.w3.org/2000/svg">
<path d="M18.0566 106V81.9094L30.0394 67.4328L35.0395 67.4577V92.0094H73.5939C80.7387 92.0094 86.5743 86.1738 86.5743 79.029C86.5743 74.1287 83.8311 69.8518 79.816 67.6323L87.5468 56.9837C91.936 58.1433 93.1953 58.8416 96.5495 62.3329C103.582 69.6523 104.954 82.1089 100.415 90.9869C93.0083 105.426 75.3147 106 60.9877 106H18.0566ZM18.0566 62.6571V9.55131H60.2894C68.8806 9.55131 76.0753 9.72588 81.2874 11.6835C86.4745 13.6287 90.4771 17.2073 93.4198 21.2598C94.2926 22.4568 95.0034 23.6913 95.5894 24.9506L81.3248 43.7291C81.3497 43.3799 81.3622 43.0183 81.3622 42.6567V36.8461C81.3622 29.9009 75.6887 24.2274 68.7559 24.2274H35.0395V53.854L25.4383 53.9413L18.0566 62.6571Z" fill="white"/>
<path fill-rule="evenodd" clip-rule="evenodd" d="M89.3784 13.4167C94.1167 14.3145 98.2689 15.8233 101.71 18.1051L74.216 54.2779L25.7861 54.6645L0.13716 84.9768L0 102.583L29.7014 66.6971L79.3408 67.0338L110.738 23.8658C114.279 26.2848 116.823 30.1378 118.818 34.8137L121 7.62939e-06L89.3784 13.4167Z" fill="white"/>
</svg>
