<?xml version="1.0" encoding="UTF-8"?>
<!DOCTYPE svg PUBLIC "-//W3C//DTD SVG 1.1//EN" "http://www.w3.org/Graphics/SVG/1.1/DTD/svg11.dtd">
<!-- Creator: CorelDRAW X7 -->
<svg xmlns="http://www.w3.org/2000/svg" xml:space="preserve" width="115.449mm" height="101.143mm" version="1.1" style="shape-rendering:geometricPrecision; text-rendering:geometricPrecision; image-rendering:optimizeQuality; fill-rule:evenodd; clip-rule:evenodd"
viewBox="0 0 993 870"
 xmlns:xlink="http://www.w3.org/1999/xlink">
 <defs>
  <style type="text/css">
   <![CDATA[
    .fil1 {fill:#FEFEFE}
    .fil0 {fill:#FEFEFE;fill-rule:nonzero}
   ]]>
  </style>
 </defs>
 <g id="Layer_x0020_1">
  <metadata id="CorelCorpID_0Corel-Layer"/>
  <g id="_2203901885280">
   <path class="fil0" d="M148 870l0 -198 98 -119 41 0 0 202 317 0c58,0 106,-48 106,-107l0 0c0,-40 -22,-75 -55,-93l63 -87c36,9 47,15 74,43 58,60 69,163 32,235 -61,119 -206,124 -324,124l-352 0zm0 -356l0 -436 347 0c70,0 129,2 172,18 42,16 75,45 99,78 8,10 13,20 18,31l-117 154c0,-3 1,-6 1,-9l0 -48c0,-57 -47,-103 -104,-103l-277 0 0 243 -78 0 -61 72z"/>
   <path class="fil1" d="M733 110c39,7 73,20 101,38l-225 297 -397 3 -211 249 -1 145 244 -295 407 3 258 -354c29,20 49,51 66,90l18 -286 -260 110z"/>
  </g>
 </g>
</svg>
