<svg width="50" height="62" viewBox="0 0 50 62" fill="none" xmlns="http://www.w3.org/2000/svg">
<path d="M26.5811 1.08325C26.7633 1.03862 26.929 1.06159 27.0879 1.13794C27.3357 1.25714 27.5682 1.50558 27.7959 1.83716L28.0225 2.19458L28.0234 2.19556L30.7734 6.75415V6.75513C31.2507 7.54116 31.6904 8.31484 32.167 9.0979L32.6592 9.88501V9.88599C33.2991 10.8647 33.9364 11.8759 34.46 12.9231L34.498 13.0002H34.584C34.9277 13.0002 35.3447 12.9764 35.7822 12.9524C36.2216 12.9282 36.6846 12.904 37.1279 12.9016C37.572 12.8993 37.9913 12.9186 38.3428 12.9817C38.6979 13.0455 38.9636 13.1506 39.1221 13.301V13.3C39.196 13.3748 39.3386 13.5673 39.5166 13.8352C39.6932 14.101 39.8978 14.4303 40.0918 14.7668C40.286 15.1038 40.468 15.4462 40.6016 15.7375C40.6684 15.8833 40.7222 16.0142 40.7588 16.1243C40.7964 16.2373 40.8125 16.317 40.8125 16.3645C40.8125 16.7605 40.5272 17.1825 40.1348 17.3C39.7658 17.4103 39.2276 17.2654 38.6973 16.3694H38.6982C38.4304 15.9103 38.1715 15.5049 37.9463 15.092L37.9072 15.0198H37.8242C36.9586 15.0198 35.9459 15.0953 35.043 15.053C34.5956 15.032 34.1895 14.9824 33.8594 14.8831C33.5692 14.7957 33.3503 14.6737 33.21 14.512L33.1553 14.4407L27.1689 4.65063L27.0137 4.39673L26.918 4.67896L24.8457 10.7815L24.8203 10.8586L24.873 10.9192L29.4316 16.0803L29.4336 16.0823C29.5484 16.2066 29.7724 16.4328 30.0391 16.7053C30.3073 16.9794 30.6218 17.3037 30.9219 17.6272C31.2224 17.9512 31.5068 18.2729 31.7148 18.5422C31.8188 18.6769 31.9019 18.7953 31.958 18.8928C32.0181 18.9974 32.0342 19.0563 32.0342 19.0774C32.0342 19.5202 31.9686 19.7879 31.8652 19.9524C31.7673 20.1081 31.6241 20.1886 31.416 20.2307C31.1998 20.2744 30.9322 20.2727 30.5996 20.2727C30.3543 20.2727 30.0802 20.274 29.7832 20.2991L29.4795 20.3333H29.4785C28.9853 20.4063 28.3039 20.3786 27.6191 20.3596C27.0317 20.3433 26.4358 20.333 25.9902 20.4104L25.8086 20.4495L25.8057 20.4504C25.7501 20.4664 25.6944 20.499 25.6436 20.5354C25.5908 20.5731 25.5336 20.6219 25.4736 20.678C25.3533 20.7905 25.2137 20.941 25.0625 21.1165C24.7596 21.4682 24.4025 21.9293 24.0508 22.4084C23.349 23.3646 22.6559 24.4089 22.4434 24.8147L22.3359 25.0178H43.6367L43.5215 24.8118C43.2748 24.3658 42.9366 23.8428 42.6201 23.3235C42.3007 22.7993 42.0014 22.2752 41.8203 21.8098C41.6356 21.3352 41.5918 20.9648 41.7178 20.72C41.8366 20.4895 42.1431 20.3088 42.835 20.3088C42.8507 20.3088 42.8799 20.3147 42.9248 20.3391C42.9689 20.3631 43.0213 20.4011 43.0811 20.4543C43.2007 20.5611 43.3383 20.7184 43.4883 20.9153C43.788 21.3087 44.1241 21.8425 44.4482 22.3967C44.7717 22.9499 45.0811 23.5202 45.3291 23.9856C45.5752 24.4475 45.764 24.813 45.8408 24.9475L45.8809 25.0178H45.9619C46.239 25.0178 46.5678 25.0014 46.9092 24.9856C47.2525 24.9697 47.6111 24.9549 47.9531 24.9573C48.2957 24.9596 48.6171 24.9791 48.8867 25.0315C49.091 25.0712 49.2559 25.1274 49.377 25.2014L49.4834 25.2815L49.6182 25.4163C49.8895 25.7308 49.9201 26.0991 49.7734 26.3997C49.6039 26.7469 49.1792 27.0374 48.5234 27.0374H16.0488C15.587 27.0373 15.2022 26.8863 14.9707 26.6506C14.7452 26.421 14.6524 26.1003 14.7852 25.717L14.7861 25.718C14.854 25.5315 14.9486 25.3994 15.0645 25.304C15.1812 25.2078 15.3264 25.1425 15.5029 25.0989C15.8636 25.0098 16.3227 25.0178 16.8779 25.0178C17.0709 25.0178 17.3161 25.0317 17.5889 25.0471C17.8597 25.0624 18.1554 25.0795 18.4434 25.0842C18.731 25.089 19.0162 25.0822 19.2646 25.0491C19.509 25.0165 19.7372 24.9556 19.8975 24.8411L19.916 24.8284L19.9287 24.8098L23.7344 19.5735L23.7334 19.5725C23.8923 19.3665 24.016 19.1832 24.1152 19.0481C24.2189 18.9071 24.3045 18.8074 24.4082 18.7336C24.5867 18.6066 24.8435 18.538 25.3965 18.5354L25.6523 18.5383H25.6562C26.2278 18.5383 26.6573 18.4998 27.0859 18.4622C27.5137 18.4246 27.9416 18.388 28.5186 18.3879H28.7051L28.6523 18.2092C28.5476 17.8531 28.328 17.6057 28.1006 17.3928C27.8663 17.1735 27.641 17.0024 27.4619 16.7698L27.3516 16.8547L27.4619 16.7688L27.4551 16.761L23.2354 12.052L23.2344 12.051L22.9844 11.7708C22.9171 11.6912 22.865 11.6231 22.8252 11.5598C22.7505 11.441 22.7239 11.3448 22.7295 11.2239C22.7355 11.0927 22.7794 10.9272 22.8662 10.6692C22.9091 10.5417 22.961 10.3953 23.0215 10.2229L23.2266 9.6272V9.62622C23.5987 8.47262 24.1701 7.02239 24.4355 5.84692L24.4883 5.61255L24.2588 5.68286C24.1073 5.72946 23.9132 5.86445 23.7119 6.02661C23.5049 6.19344 23.2702 6.40571 23.0322 6.6272C22.671 6.96337 22.3047 7.3187 22.0039 7.58423L21.7275 7.81567L21.7266 7.81665C21.1104 8.30209 20.665 8.64016 20.3398 8.99438C20.0493 9.31097 19.8538 9.6402 19.7051 10.0959L19.6445 10.3C19.3909 11.23 19.1571 12.0374 18.9287 12.9084L18.7012 13.8079C18.4731 14.7203 18.3214 15.3933 18.1855 15.928C18.0507 16.4587 17.94 16.8179 17.8047 17.0774C17.6731 17.3297 17.5185 17.4869 17.291 17.6125C17.1145 17.71 16.8927 17.7889 16.5977 17.8743L16.2773 17.9631L16.2734 17.9641L11.0381 19.5081C10.7389 19.5922 10.505 19.6504 10.3174 19.6975C10.1317 19.7441 9.98546 19.7816 9.86816 19.8215C9.74864 19.8622 9.65069 19.9084 9.56348 19.9788C9.47689 20.0486 9.40867 20.1357 9.33887 20.2454L9.33301 20.2542L9.3291 20.2639L7.29492 24.8225L7.20703 25.0178H7.42188C8.07778 25.0178 8.78653 24.997 9.46387 25.0022L10.1279 25.0178H10.1289C10.5818 25.0356 10.884 25.1792 11.0693 25.3674C11.2548 25.556 11.3356 25.8016 11.3232 26.0491C11.2983 26.5473 10.9005 27.0374 10.2471 27.0374H1.46973C1.04078 27.0374 0.73239 26.9303 0.523438 26.7756C0.315053 26.6214 0.19618 26.4143 0.155273 26.1956C0.0776317 25.7802 0.277945 25.3257 0.682617 25.1213L0.766602 25.0842C0.924186 25.0269 1.20044 24.9893 1.55762 24.97C1.91175 24.9508 2.32966 24.9502 2.75684 24.9573C3.60154 24.9712 4.50397 25.0178 4.97266 25.0178H5.0625L5.09961 24.9368L6.9082 20.9426L6.90918 20.9407C7.19189 20.281 7.38242 19.7881 7.5332 19.4231C7.68611 19.0529 7.79671 18.8169 7.92383 18.6467C8.1683 18.3195 8.48161 18.2159 9.41895 17.929L9.41992 17.9299C11.2921 17.3843 12.6203 17.0388 13.5762 16.7795C14.5259 16.5219 15.1229 16.3456 15.5117 16.1389C15.7097 16.0336 15.8599 15.9179 15.9775 15.7747C16.0949 15.6317 16.174 15.4682 16.2402 15.2776C16.3058 15.0888 16.3606 14.8659 16.4248 14.6028C16.4894 14.3379 16.5655 14.027 16.6729 13.6536C17.0148 12.4853 17.309 11.3348 17.626 10.2112L17.9531 9.09692V9.09497C18.1218 8.51393 18.2284 8.31516 18.3652 8.16626C18.4379 8.08715 18.5206 8.02051 18.6416 7.91724C18.701 7.8665 18.7666 7.80848 18.8408 7.7395L19.0889 7.49438L25.9365 1.47485L25.9385 1.4729C26.1819 1.24747 26.3953 1.12881 26.5811 1.08325Z" fill="white" stroke="white" stroke-width="0.27851"/>
<path d="M43.1553 29.3305C43.3762 29.1872 43.586 29.1866 43.7744 29.2573C43.9692 29.3303 44.1459 29.4824 44.2744 29.6479C44.3379 29.7297 44.387 29.8122 44.4199 29.8842C44.4542 29.9591 44.4658 30.0128 44.4658 30.0405C44.4658 30.4479 44.351 30.8525 44.1895 31.2495C44.1079 31.4498 44.0164 31.6438 43.9238 31.8334L43.6504 32.392L43.6484 32.3969L40.9355 38.7631C40.1817 40.4783 39.7072 41.7021 39.3496 42.5639C38.9878 43.4357 38.7528 43.9184 38.4795 44.1918C38.2216 44.4497 37.9185 44.5304 37.3643 44.5385C37.0857 44.5426 36.7527 44.5277 36.3379 44.5121C35.9246 44.4967 35.4342 44.4809 34.8477 44.4809H34.7539L34.7188 44.5668L31.1396 53.3071L31.1387 53.31C30.8377 54.0813 30.5373 54.8144 30.2363 55.5385L29.332 57.7153L29.3301 57.7182C29.1798 58.1128 29.0392 58.4597 28.8936 58.812L28.4277 59.9379L28.4268 59.9389C28.1375 60.6573 27.8635 61.0685 27.6113 61.2768C27.4875 61.379 27.3715 61.4304 27.2627 61.4477C27.1537 61.465 27.0418 61.4505 26.9248 61.4057C26.685 61.3139 26.4355 61.1025 26.1719 60.8266C25.9086 60.551 25.6584 60.242 25.3887 59.9428C25.2492 59.7635 25.1193 59.6435 24.9922 59.5258C24.8974 59.438 24.8029 59.3507 24.7012 59.2368L24.5967 59.1127L24.5928 59.1078L19.9209 53.7582L19.9131 53.7495L19.5273 53.3725C19.1787 53.0247 18.9359 52.7539 18.7422 52.4516C18.4858 52.0512 18.3104 51.5881 18.1045 50.8022H18.1055L15.6182 40.8559H15.6191L15.6152 40.8442L15.5166 40.5424C15.5098 40.5187 15.5037 40.4954 15.499 40.4809C15.4966 40.4735 15.4922 40.4601 15.4854 40.4467C15.4783 40.433 15.4631 40.4078 15.4336 40.3881C15.4026 40.3675 15.3723 40.3635 15.3574 40.3627H15.3438C15.335 40.3597 15.301 40.3461 15.2295 40.2905L15.2217 40.2836L15.2119 40.2787L10.959 37.9077H10.96C10.3523 37.5374 9.87713 37.2951 9.49414 37.1069C9.1079 36.917 8.8276 36.788 8.59375 36.6381C8.20141 36.3867 7.93917 36.0776 7.5918 35.2905L7.4375 34.9233C7.3616 34.7335 7.2104 34.3739 7.02734 33.935C6.84382 33.495 6.62763 32.9733 6.4209 32.4565C6.21396 31.9391 6.01698 31.4276 5.87207 31.0092C5.79964 30.8001 5.74081 30.6158 5.7002 30.4662C5.65841 30.3123 5.63965 30.2077 5.63965 30.1528C5.63982 29.8237 5.86935 29.5179 6.19922 29.3657C6.48369 29.2345 6.82675 29.226 7.12891 29.4135L7.25586 29.5053L7.25781 29.5073C7.34036 29.5748 7.43331 29.7021 7.53125 29.8784C7.62745 30.0515 7.72215 30.2603 7.81055 30.4789C7.98713 30.9158 8.13557 31.3807 8.23047 31.6655V31.6664L8.2334 31.6733C8.29836 31.8404 8.39117 32.1072 8.50488 32.4252C8.61806 32.7418 8.75123 33.106 8.89355 33.4594C9.03554 33.812 9.18822 34.1581 9.34277 34.4389C9.4201 34.5794 9.49917 34.7069 9.5791 34.811C9.63814 34.8879 9.70187 34.9561 9.76855 35.0092L9.83594 35.0571L9.84082 35.06L13.0029 36.7905V36.7914C13.3621 36.9994 14.3286 37.511 15.2275 38.0073C15.6793 38.2566 16.116 38.5029 16.4551 38.7075C16.6246 38.8098 16.7683 38.9009 16.877 38.976C16.9899 39.0541 17.0496 39.105 17.0684 39.1284V39.1293L17.0723 39.1342C17.083 39.1469 17.1083 39.1892 17.1455 39.2768C17.1805 39.3592 17.2217 39.4685 17.2676 39.603C17.3594 39.872 17.4689 40.2337 17.5908 40.6606C17.8345 41.5138 18.1245 42.6225 18.4141 43.7641C18.7039 44.9068 18.9921 46.0794 19.2314 47.061L19.7559 49.2123L19.7568 49.2133C19.8314 49.5024 19.8872 49.7593 19.9385 49.9926C19.9895 50.2246 20.0363 50.4361 20.0918 50.6293C20.1901 50.9712 20.3176 51.2631 20.5518 51.5346L20.6592 51.6498L25.25 56.8061C25.5485 57.1789 25.666 57.2981 25.9951 57.6635H25.9961C26.1106 57.8161 26.3035 58.0481 26.3857 58.1303C26.4364 58.181 26.4579 58.2111 26.4688 58.228C26.4753 58.2381 26.4781 58.2429 26.4854 58.2553C26.4914 58.2656 26.5035 58.2851 26.5225 58.3041C26.5617 58.3434 26.6116 58.3597 26.6504 58.3715C26.6936 58.3847 26.7619 58.4027 26.8623 58.4301L26.9805 58.4623L27.0273 58.3481L30.833 49.0424V49.0414C31.6271 47.0657 32.1409 45.685 32.5439 44.7026C32.9479 43.7179 33.2247 43.1767 33.5283 42.8774C33.8162 42.5938 34.1391 42.5189 34.6924 42.5229C34.9714 42.5249 35.299 42.5469 35.7041 42.5688C36.1074 42.5905 36.5817 42.6117 37.1455 42.6118H37.2744L37.2852 42.4838C37.2885 42.4444 37.3059 42.3684 37.3418 42.2553C37.3767 42.1456 37.4255 42.0103 37.4844 41.8569C37.6022 41.55 37.7593 41.1751 37.9238 40.7944C38.0891 40.4118 38.2607 40.0277 38.4072 39.7006L38.7432 38.9496V38.9487L42.4355 30.3588V30.3578C42.6752 29.7864 42.9271 29.4785 43.1553 29.3305Z" fill="white" stroke="white" stroke-width="0.27851"/>
</svg>
