<svg width="175" height="158" viewBox="0 0 175 158" fill="none" xmlns="http://www.w3.org/2000/svg">
<path d="M2.49 140V119H12.75C15.39 119 17.37 119.5 18.69 120.5C20.03 121.5 20.7 122.82 20.7 124.46C20.7 125.56 20.43 126.52 19.89 127.34C19.35 128.14 18.61 128.76 17.67 129.2C16.73 129.64 15.65 129.86 14.43 129.86L15 128.63C16.32 128.63 17.49 128.85 18.51 129.29C19.53 129.71 20.32 130.34 20.88 131.18C21.46 132.02 21.75 133.05 21.75 134.27C21.75 136.07 21.04 137.48 19.62 138.5C18.2 139.5 16.11 140 13.35 140H2.49ZM7.32 136.34H12.99C14.25 136.34 15.2 136.14 15.84 135.74C16.5 135.32 16.83 134.66 16.83 133.76C16.83 132.88 16.5 132.23 15.84 131.81C15.2 131.37 14.25 131.15 12.99 131.15H6.96V127.61H12.15C13.33 127.61 14.23 127.41 14.85 127.01C15.49 126.59 15.81 125.96 15.81 125.12C15.81 124.3 15.49 123.69 14.85 123.29C14.23 122.87 13.33 122.66 12.15 122.66H7.32V136.34ZM35.6295 140.36C33.9695 140.36 32.4295 140.09 31.0095 139.55C29.6095 139.01 28.3895 138.25 27.3495 137.27C26.3295 136.29 25.5295 135.14 24.9495 133.82C24.3895 132.5 24.1095 131.06 24.1095 129.5C24.1095 127.94 24.3895 126.5 24.9495 125.18C25.5295 123.86 26.3395 122.71 27.3795 121.73C28.4195 120.75 29.6395 119.99 31.0395 119.45C32.4395 118.91 33.9595 118.64 35.5995 118.64C37.2595 118.64 38.7795 118.91 40.1595 119.45C41.5595 119.99 42.7695 120.75 43.7895 121.73C44.8295 122.71 45.6395 123.86 46.2195 125.18C46.7995 126.48 47.0895 127.92 47.0895 129.5C47.0895 131.06 46.7995 132.51 46.2195 133.85C45.6395 135.17 44.8295 136.32 43.7895 137.3C42.7695 138.26 41.5595 139.01 40.1595 139.55C38.7795 140.09 37.2695 140.36 35.6295 140.36ZM35.5995 136.22C36.5395 136.22 37.3995 136.06 38.1795 135.74C38.9795 135.42 39.6795 134.96 40.2795 134.36C40.8795 133.76 41.3395 133.05 41.6595 132.23C41.9995 131.41 42.1695 130.5 42.1695 129.5C42.1695 128.5 41.9995 127.59 41.6595 126.77C41.3395 125.95 40.8795 125.24 40.2795 124.64C39.6995 124.04 39.0095 123.58 38.2095 123.26C37.4095 122.94 36.5395 122.78 35.5995 122.78C34.6595 122.78 33.7895 122.94 32.9895 123.26C32.2095 123.58 31.5195 124.04 30.9195 124.64C30.3195 125.24 29.8495 125.95 29.5095 126.77C29.1895 127.59 29.0295 128.5 29.0295 129.5C29.0295 130.48 29.1895 131.39 29.5095 132.23C29.8495 133.05 30.3095 133.76 30.8895 134.36C31.4895 134.96 32.1895 135.42 32.9895 135.74C33.7895 136.06 34.6595 136.22 35.5995 136.22ZM55.1081 140L48.2381 119H53.2781L59.2481 137.6H56.7281L62.9681 119H67.4681L73.4681 137.6H71.0381L77.1581 119H81.8081L74.9381 140H69.7181L64.4081 123.68H65.7881L60.3281 140H55.1081ZM98.9213 119H103.781V140H98.9213V119ZM89.3813 140H84.5213V119H89.3813V140ZM99.2813 131.39H89.0213V127.28H99.2813V131.39ZM113.22 127.46H123.33V131.24H113.22V127.46ZM113.58 136.1H125.01V140H108.75V119H124.62V122.9H113.58V136.1ZM126.117 140L135.477 119H140.277L149.667 140H144.567L136.887 121.46H138.807L131.097 140H126.117ZM130.797 135.5L132.087 131.81H142.887L144.207 135.5H130.797ZM151.845 140V119H161.385C163.665 119 165.675 119.44 167.415 120.32C169.155 121.18 170.515 122.39 171.495 123.95C172.475 125.51 172.965 127.36 172.965 129.5C172.965 131.62 172.475 133.47 171.495 135.05C170.515 136.61 169.155 137.83 167.415 138.71C165.675 139.57 163.665 140 161.385 140H151.845ZM156.705 136.01H161.145C162.545 136.01 163.755 135.75 164.775 135.23C165.815 134.69 166.615 133.93 167.175 132.95C167.755 131.97 168.045 130.82 168.045 129.5C168.045 128.16 167.755 127.01 167.175 126.05C166.615 125.07 165.815 124.32 164.775 123.8C163.755 123.26 162.545 122.99 161.145 122.99H156.705V136.01Z" fill="#0C2744"/>
<path d="M45.0566 106V81.9094L57.0394 67.4328L62.0395 67.4577V92.0094H100.594C107.739 92.0094 113.574 86.1738 113.574 79.029C113.574 74.1287 110.831 69.8518 106.816 67.6323L114.547 56.9837C118.936 58.1433 120.195 58.8416 123.55 62.3329C130.582 69.6523 131.954 82.1089 127.415 90.9869C120.008 105.426 102.315 106 87.9877 106H45.0566ZM45.0566 62.6571V9.55131H87.2894C95.8806 9.55131 103.075 9.72588 108.287 11.6835C113.475 13.6287 117.477 17.2073 120.42 21.2598C121.293 22.4568 122.003 23.6913 122.589 24.9506L108.325 43.7291C108.35 43.3799 108.362 43.0183 108.362 42.6567V36.8461C108.362 29.9009 102.689 24.2274 95.7559 24.2274H62.0395V53.854L52.4383 53.9413L45.0566 62.6571Z" fill="#0C2744"/>
<path fill-rule="evenodd" clip-rule="evenodd" d="M116.378 13.4167C121.117 14.3145 125.269 15.8233 128.71 18.1051L101.216 54.2779L52.7861 54.6645L27.1372 84.9768L27 102.583L56.7014 66.6971L106.341 67.0338L137.738 23.8658C141.279 26.2848 143.823 30.1378 145.818 34.8137L148 7.62939e-06L116.378 13.4167Z" fill="#0C2744"/>
</svg>
