<svg width="175" height="154" viewBox="0 0 175 154" fill="none" xmlns="http://www.w3.org/2000/svg">
<path d="M45.0508 106.384V9.45028H87.1668C95.8574 9.45028 103.211 9.45028 107.891 11.4558C113.239 13.4613 117.25 17.4724 120.592 21.4834C123.266 25.4945 124.603 29.5055 124.603 34.1851C124.603 38.1961 123.935 42.8757 121.261 46.8867C118.587 50.2293 115.913 52.9033 111.902 56.2459C118.587 58.2514 119.255 58.2514 123.266 62.2624C130.62 69.616 131.957 82.3177 127.277 91.0083C119.924 105.715 101.874 106.384 87.8353 106.384H45.0508ZM61.7635 55.5774V66.2735V92.3453H100.537C107.891 92.3453 113.239 86.3287 113.239 78.9751C113.239 72.2901 107.891 66.2735 100.537 66.2735L91.1779 62.2624L95.8574 55.5774C102.542 55.5774 107.891 49.5608 107.891 42.8757V36.8591C107.891 30.174 102.542 24.1575 95.8574 24.1575H61.7635V55.5774Z" fill="#0F4469"/>
<path fill-rule="evenodd" clip-rule="evenodd" d="M115.912 14.8702C121.26 15.5387 125.271 17.5442 128.613 19.5497L101.204 55.6492L52.4033 56.3177L27 86.4006V104.45L56.4144 68.3508H105.884L137.304 25.5663C141.315 27.5718 143.989 31.5829 145.994 36.2624L148 1.5L115.912 14.8702Z" fill="#0F4469" stroke="#FEFEFE" stroke-width="0.942878"/>
<path d="M2.49 135.5V114.5H12.75C15.39 114.5 17.37 115 18.69 116C20.03 117 20.7 118.32 20.7 119.96C20.7 121.06 20.43 122.02 19.89 122.84C19.35 123.64 18.61 124.26 17.67 124.7C16.73 125.14 15.65 125.36 14.43 125.36L15 124.13C16.32 124.13 17.49 124.35 18.51 124.79C19.53 125.21 20.32 125.84 20.88 126.68C21.46 127.52 21.75 128.55 21.75 129.77C21.75 131.57 21.04 132.98 19.62 134C18.2 135 16.11 135.5 13.35 135.5H2.49ZM7.32 131.84H12.99C14.25 131.84 15.2 131.64 15.84 131.24C16.5 130.82 16.83 130.16 16.83 129.26C16.83 128.38 16.5 127.73 15.84 127.31C15.2 126.87 14.25 126.65 12.99 126.65H6.96V123.11H12.15C13.33 123.11 14.23 122.91 14.85 122.51C15.49 122.09 15.81 121.46 15.81 120.62C15.81 119.8 15.49 119.19 14.85 118.79C14.23 118.37 13.33 118.16 12.15 118.16H7.32V131.84ZM35.6295 135.86C33.9695 135.86 32.4295 135.59 31.0095 135.05C29.6095 134.51 28.3895 133.75 27.3495 132.77C26.3295 131.79 25.5295 130.64 24.9495 129.32C24.3895 128 24.1095 126.56 24.1095 125C24.1095 123.44 24.3895 122 24.9495 120.68C25.5295 119.36 26.3395 118.21 27.3795 117.23C28.4195 116.25 29.6395 115.49 31.0395 114.95C32.4395 114.41 33.9595 114.14 35.5995 114.14C37.2595 114.14 38.7795 114.41 40.1595 114.95C41.5595 115.49 42.7695 116.25 43.7895 117.23C44.8295 118.21 45.6395 119.36 46.2195 120.68C46.7995 121.98 47.0895 123.42 47.0895 125C47.0895 126.56 46.7995 128.01 46.2195 129.35C45.6395 130.67 44.8295 131.82 43.7895 132.8C42.7695 133.76 41.5595 134.51 40.1595 135.05C38.7795 135.59 37.2695 135.86 35.6295 135.86ZM35.5995 131.72C36.5395 131.72 37.3995 131.56 38.1795 131.24C38.9795 130.92 39.6795 130.46 40.2795 129.86C40.8795 129.26 41.3395 128.55 41.6595 127.73C41.9995 126.91 42.1695 126 42.1695 125C42.1695 124 41.9995 123.09 41.6595 122.27C41.3395 121.45 40.8795 120.74 40.2795 120.14C39.6995 119.54 39.0095 119.08 38.2095 118.76C37.4095 118.44 36.5395 118.28 35.5995 118.28C34.6595 118.28 33.7895 118.44 32.9895 118.76C32.2095 119.08 31.5195 119.54 30.9195 120.14C30.3195 120.74 29.8495 121.45 29.5095 122.27C29.1895 123.09 29.0295 124 29.0295 125C29.0295 125.98 29.1895 126.89 29.5095 127.73C29.8495 128.55 30.3095 129.26 30.8895 129.86C31.4895 130.46 32.1895 130.92 32.9895 131.24C33.7895 131.56 34.6595 131.72 35.5995 131.72ZM55.1081 135.5L48.2381 114.5H53.2781L59.2481 133.1H56.7281L62.9681 114.5H67.4681L73.4681 133.1H71.0381L77.1581 114.5H81.8081L74.9381 135.5H69.7181L64.4081 119.18H65.7881L60.3281 135.5H55.1081ZM98.9213 114.5H103.781V135.5H98.9213V114.5ZM89.3813 135.5H84.5213V114.5H89.3813V135.5ZM99.2813 126.89H89.0213V122.78H99.2813V126.89ZM113.22 122.96H123.33V126.74H113.22V122.96ZM113.58 131.6H125.01V135.5H108.75V114.5H124.62V118.4H113.58V131.6ZM126.117 135.5L135.477 114.5H140.277L149.667 135.5H144.567L136.887 116.96H138.807L131.097 135.5H126.117ZM130.797 131L132.087 127.31H142.887L144.207 131H130.797ZM151.845 135.5V114.5H161.385C163.665 114.5 165.675 114.94 167.415 115.82C169.155 116.68 170.515 117.89 171.495 119.45C172.475 121.01 172.965 122.86 172.965 125C172.965 127.12 172.475 128.97 171.495 130.55C170.515 132.11 169.155 133.33 167.415 134.21C165.675 135.07 163.665 135.5 161.385 135.5H151.845ZM156.705 131.51H161.145C162.545 131.51 163.755 131.25 164.775 130.73C165.815 130.19 166.615 129.43 167.175 128.45C167.755 127.47 168.045 126.32 168.045 125C168.045 123.66 167.755 122.51 167.175 121.55C166.615 120.57 165.815 119.82 164.775 119.3C163.755 118.76 162.545 118.49 161.145 118.49H156.705V131.51Z" fill="#0F4469"/>
</svg>
