<svg width="46" height="30" viewBox="0 0 46 30" fill="none" xmlns="http://www.w3.org/2000/svg">
<mask id="mask0_115_960" style="mask-type:luminance" maskUnits="userSpaceOnUse" x="2" y="16" width="42" height="14">
<path d="M2.3457 16.5516H43.6576V29.4585H2.3457V16.5516Z" fill="white"/>
</mask>
<g mask="url(#mask0_115_960)">
<path d="M43.4322 28.9457L29.0039 16.9655C28.5821 16.6152 27.9709 16.6152 27.5491 16.9655L23.662 20.1929C23.2702 20.5175 22.7036 20.5175 22.3124 20.1929L18.4253 16.9655C18.0036 16.6152 17.3923 16.6152 16.9699 16.9655L2.54156 28.9457C2.3429 29.1107 2.45965 29.4335 2.7176 29.4335H43.2562C43.5142 29.4335 43.6309 29.1107 43.4322 28.9457Z" fill="#0F4469"/>
</g>
<path d="M15.1674 14.2602L0.451726 2.04164C0.272625 1.89249 0 2.02024 0 2.25375V27.2234C0 27.4569 0.272625 27.5846 0.451726 27.4361L15.1674 15.2175C15.4669 14.9687 15.4669 14.509 15.1674 14.2602Z" fill="#0F4469"/>
<mask id="mask1_115_960" style="mask-type:luminance" maskUnits="userSpaceOnUse" x="2" y="0" width="42" height="18">
<path d="M2.3457 0H43.6576V17.3337H2.3457V0Z" fill="white"/>
</mask>
<g mask="url(#mask1_115_960)">
<path d="M2.542 0.532713L22.4345 17.0504C22.7548 17.3163 23.2193 17.3163 23.539 17.0504L43.4321 0.532713C43.6307 0.368282 43.514 0.0449219 43.256 0.0449219H2.71743C2.45948 0.0449219 2.34273 0.368282 2.542 0.532713Z" fill="#0F4469"/>
</g>
<mask id="mask2_115_960" style="mask-type:luminance" maskUnits="userSpaceOnUse" x="30" y="1" width="16" height="27">
<path d="M30.5117 1.84155H45.9994V27.505H30.5117V1.84155Z" fill="white"/>
</mask>
<g mask="url(#mask2_115_960)">
<path d="M45.5202 2.04152L30.8052 14.2601C30.505 14.5089 30.505 14.9686 30.8052 15.2174L45.5202 27.436C45.6999 27.5845 45.9719 27.4574 45.9719 27.2239V2.25363C45.9719 2.02012 45.6999 1.89237 45.5202 2.04152Z" fill="#0F4469"/>
</g>
</svg>
