<svg width="41" height="41" viewBox="0 0 41 41" fill="none" xmlns="http://www.w3.org/2000/svg">
<mask id="mask0_171_1368" style="mask-type:luminance" maskUnits="userSpaceOnUse" x="7" y="0" width="34" height="41">
<path d="M7.30469 0H40.8472V41H7.30469V0Z" fill="white"/>
</mask>
<g mask="url(#mask0_171_1368)">
<path fill-rule="evenodd" clip-rule="evenodd" d="M11.8127 0H27.5567L40.847 13.2886V36.5051C40.8466 36.6518 40.8391 36.7984 40.8245 36.9443C40.8095 37.0905 40.7878 37.2356 40.7587 37.3794C40.7299 37.5233 40.694 37.6656 40.651 37.806C40.6081 37.9463 40.5584 38.0842 40.502 38.2198C40.4457 38.3554 40.383 38.4879 40.3136 38.6176C40.2443 38.7469 40.1686 38.8726 40.087 38.9944C40.0054 39.1166 39.9179 39.2341 39.8244 39.3476C39.7314 39.4611 39.6329 39.5695 39.5292 39.6736C39.4251 39.7773 39.3163 39.8758 39.2032 39.9688C39.0897 40.0619 38.9718 40.1494 38.8496 40.231C38.7278 40.3125 38.6021 40.3882 38.4724 40.4572C38.3431 40.5266 38.2107 40.5897 38.0751 40.6456C37.9395 40.702 37.8015 40.7517 37.6612 40.7946C37.5205 40.8372 37.3786 40.8731 37.2343 40.9019C37.0904 40.931 36.9453 40.9527 36.7995 40.9673C36.6533 40.9819 36.507 40.9894 36.36 40.9898H11.8127C11.6657 40.9894 11.5195 40.9819 11.3736 40.9669C11.2274 40.9519 11.0827 40.9302 10.9388 40.9011C10.795 40.8723 10.6527 40.8364 10.5123 40.7935C10.372 40.7505 10.2344 40.7008 10.0988 40.6445C9.96323 40.5881 9.83078 40.525 9.70149 40.4556C9.5722 40.3867 9.44646 40.311 9.32465 40.2294C9.20285 40.1478 9.08499 40.0603 8.97186 39.9672C8.85834 39.8742 8.74954 39.7757 8.64587 39.672C8.5422 39.5679 8.44366 39.4595 8.35063 39.346C8.2576 39.2329 8.1701 39.115 8.0885 38.9932C8.00691 38.871 7.93122 38.7457 7.86224 38.6164C7.79286 38.4867 7.7298 38.3547 7.67343 38.2191C7.61706 38.0835 7.56739 37.9455 7.52443 37.8052C7.48146 37.6648 7.44559 37.5229 7.41682 37.3791C7.38765 37.2352 7.36597 37.0901 7.35099 36.9443C7.33601 36.798 7.32852 36.6518 7.32812 36.5051V16.6423H8.40345V36.5051C8.40385 36.6167 8.40976 36.7279 8.42119 36.8386C8.43262 36.9498 8.44918 37.0598 8.47125 37.1693C8.49333 37.2785 8.52092 37.3865 8.55364 37.493C8.58635 37.5998 8.6238 37.7046 8.66677 37.8075C8.70973 37.9104 8.75743 38.0109 8.81025 38.1095C8.86307 38.2076 8.92062 38.303 8.9825 38.3956C9.04439 38.4883 9.11101 38.5778 9.18196 38.6641C9.25252 38.75 9.32741 38.8328 9.40625 38.9116C9.48509 38.9905 9.56747 39.0654 9.6538 39.1359C9.74012 39.2069 9.82921 39.2731 9.92223 39.3354C10.0149 39.3973 10.1103 39.4548 10.2084 39.5076C10.3066 39.5601 10.4075 39.6081 10.5104 39.6511C10.6132 39.6937 10.7181 39.7315 10.8245 39.7642C10.9313 39.797 11.0393 39.8246 11.1485 39.8466C11.2577 39.8687 11.3681 39.8853 11.4789 39.8967C11.5896 39.9081 11.7012 39.914 11.8127 39.9144H36.3549C36.4664 39.914 36.5776 39.9081 36.6887 39.8967C36.7995 39.8853 36.9099 39.8687 37.0191 39.8466C37.1282 39.8246 37.2363 39.797 37.3431 39.7642C37.4495 39.7315 37.5544 39.6937 37.6572 39.6511C37.7601 39.6081 37.8606 39.5601 37.9592 39.5076C38.0573 39.4548 38.1527 39.3973 38.2454 39.3354C38.338 39.2731 38.4275 39.2069 38.5138 39.1359C38.5997 39.0654 38.6825 38.9905 38.7613 38.9116C38.8402 38.8328 38.9151 38.75 38.9856 38.6641C39.0566 38.5778 39.1228 38.4883 39.1851 38.3956C39.247 38.303 39.3045 38.2076 39.3573 38.1095C39.4098 38.0109 39.4579 37.9104 39.5008 37.8075C39.5434 37.7046 39.5812 37.5998 39.614 37.493C39.6467 37.3865 39.6743 37.2785 39.6963 37.1693C39.7184 37.0598 39.735 36.9498 39.7464 36.8386C39.7578 36.7279 39.7637 36.6167 39.7641 36.5051V13.7297L27.1109 1.07533H11.8226C11.711 1.07612 11.5999 1.08203 11.4891 1.09346C11.3779 1.1045 11.268 1.12145 11.1588 1.14352C11.0492 1.16559 10.9416 1.19319 10.8348 1.2259C10.7283 1.25823 10.6235 1.29607 10.5206 1.33903C10.4173 1.382 10.3168 1.4297 10.2187 1.48252C10.1205 1.53534 10.0247 1.59289 9.93209 1.65477C9.83946 1.71666 9.75037 1.78328 9.66404 1.85423C9.57772 1.92479 9.49533 1.99968 9.4165 2.07852C9.33766 2.15736 9.26277 2.23974 9.19182 2.32607C9.12126 2.41239 9.05464 2.50187 8.99275 2.5945C8.93047 2.68714 8.87332 2.78253 8.8205 2.88068C8.76768 2.97883 8.71998 3.07974 8.67701 3.18262C8.63405 3.2855 8.59621 3.39036 8.56388 3.49678C8.53117 3.60361 8.50357 3.71161 8.4815 3.8208C8.45943 3.92999 8.44248 4.04036 8.43144 4.15113C8.42001 4.26228 8.41409 4.37344 8.41331 4.485V6.52331H7.33837V4.485C7.33877 4.33836 7.34626 4.19173 7.36124 4.04588C7.37582 3.90003 7.3979 3.75497 7.42706 3.6111C7.45584 3.46722 7.49171 3.32532 7.53468 3.18459C7.57764 3.04426 7.62731 2.90669 7.68368 2.7711C7.74004 2.6355 7.80272 2.50305 7.8721 2.37376C7.94147 2.24447 8.01715 2.11873 8.09875 1.99692C8.18035 1.87512 8.26785 1.75726 8.36088 1.64374C8.45391 1.53061 8.55245 1.42181 8.65612 1.31814C8.75979 1.21447 8.86859 1.11593 8.98172 1.0229C9.09524 0.929874 9.2131 0.842366 9.3349 0.76077C9.45671 0.679175 9.58245 0.603492 9.71174 0.534116C9.84103 0.46474 9.97348 0.402065 10.1091 0.345697C10.2443 0.289329 10.3822 0.239662 10.5226 0.196697C10.6629 0.153731 10.8052 0.11786 10.9491 0.0886908C11.0926 0.0599156 11.2376 0.0378414 11.3835 0.0232567C11.5297 0.00827776 11.6759 0.000788414 11.8226 0H11.8127Z" fill="#527494"/>
</g>
<mask id="mask1_171_1368" style="mask-type:luminance" maskUnits="userSpaceOnUse" x="27" y="0" width="14" height="14">
<path d="M27.4844 0H40.8448V13.3344H27.4844V0Z" fill="white"/>
</mask>
<g mask="url(#mask1_171_1368)">
<path fill-rule="evenodd" clip-rule="evenodd" d="M27.5547 0L40.8323 13.2886H31.4555C31.3282 13.2886 31.2009 13.2823 31.0739 13.2697C30.947 13.2571 30.8213 13.2382 30.6963 13.2134C30.571 13.1881 30.4476 13.1574 30.3258 13.1203C30.2036 13.0833 30.0838 13.0403 29.9659 12.9914C29.848 12.9426 29.7329 12.8882 29.6206 12.8282C29.5083 12.7679 29.3987 12.7025 29.2926 12.6319C29.1866 12.561 29.0845 12.4853 28.9856 12.4045C28.887 12.3237 28.7924 12.2382 28.7021 12.1483C28.6119 12.0584 28.5263 11.9642 28.4451 11.8657C28.3643 11.7671 28.2883 11.665 28.2173 11.559C28.146 11.4533 28.0805 11.3441 28.0202 11.2318C27.9595 11.1195 27.9051 11.0044 27.8558 10.8869C27.8066 10.769 27.7636 10.6492 27.7262 10.5274C27.6887 10.4056 27.6576 10.2822 27.6323 10.1573C27.6067 10.0319 27.5878 9.90618 27.5748 9.77925C27.5618 9.65232 27.5551 9.5254 27.5547 9.39768V0ZM28.6324 2.59174V9.39768C28.6328 9.48992 28.6379 9.58176 28.6474 9.67321C28.6568 9.76506 28.6706 9.85572 28.6891 9.94599C28.7073 10.0363 28.7301 10.1253 28.7569 10.2136C28.7841 10.3015 28.8153 10.3879 28.8508 10.473C28.8862 10.5578 28.9257 10.6409 28.9694 10.7221C29.0132 10.8033 29.0605 10.8822 29.1117 10.9586C29.1629 11.0351 29.2177 11.1088 29.2761 11.1802C29.3348 11.2511 29.3963 11.3193 29.4617 11.3844C29.5268 11.4494 29.595 11.5113 29.6659 11.5696C29.7369 11.6284 29.811 11.6831 29.8875 11.7344C29.9639 11.7856 30.0428 11.8329 30.124 11.8767C30.2048 11.92 30.2879 11.9595 30.3731 11.9949C30.4578 12.0304 30.5446 12.062 30.6325 12.0888C30.7204 12.116 30.8094 12.1384 30.8997 12.157C30.99 12.1751 31.081 12.1893 31.1725 12.1987C31.2639 12.2082 31.3558 12.2129 31.448 12.2133H38.2563L28.6324 2.59174Z" fill="#527494"/>
</g>
<mask id="mask2_171_1368" style="mask-type:luminance" maskUnits="userSpaceOnUse" x="0" y="5" width="23" height="13">
<path d="M0 5.36243H22.846V17.7744H0V5.36243Z" fill="white"/>
</mask>
<g mask="url(#mask2_171_1368)">
<path fill-rule="evenodd" clip-rule="evenodd" d="M1.23576 5.46095H21.5763C21.6575 5.46134 21.7375 5.46923 21.8172 5.48539C21.8964 5.50155 21.9733 5.5252 22.0481 5.55634C22.123 5.58748 22.194 5.62572 22.261 5.67065C22.3284 5.71598 22.3907 5.76723 22.4478 5.82438C22.505 5.88193 22.5562 5.94421 22.6012 6.01162C22.6461 6.07902 22.684 6.14998 22.7151 6.22487C22.7462 6.29937 22.7695 6.37663 22.7857 6.45626C22.8014 6.53549 22.8093 6.6159 22.8097 6.69671V16.4894C22.8093 16.5702 22.8014 16.6506 22.7857 16.7298C22.7695 16.8094 22.7462 16.8863 22.7151 16.9612C22.684 17.0361 22.6461 17.107 22.6012 17.1744C22.5562 17.2418 22.505 17.3041 22.4478 17.3617C22.3907 17.4188 22.3284 17.4701 22.261 17.515C22.194 17.5603 22.123 17.5986 22.0481 17.6297C21.9733 17.6609 21.8964 17.6845 21.8172 17.7007C21.7375 17.7164 21.6575 17.7247 21.5763 17.7251H1.23576C1.15456 17.7247 1.07454 17.7164 0.994914 17.7007C0.915289 17.6845 0.838424 17.6609 0.76353 17.6297C0.688635 17.5986 0.617682 17.5603 0.550277 17.5154C0.482872 17.4701 0.420592 17.4188 0.363435 17.3617C0.305885 17.3045 0.254641 17.2418 0.209705 17.1748C0.164768 17.1074 0.126532 17.0361 0.0953919 16.9616C0.0642516 16.8867 0.0406008 16.8094 0.0244393 16.7302C0.00827784 16.6506 0 16.5702 0 16.4894V6.68922C0 6.60802 0.00827784 6.5276 0.0244393 6.44837C0.0406008 6.36875 0.0642516 6.29188 0.0953919 6.21699C0.126532 6.14209 0.164768 6.07114 0.209705 6.00374C0.254641 5.93633 0.305885 5.87405 0.363435 5.8165C0.420592 5.75934 0.482872 5.7081 0.550277 5.66316C0.617682 5.61783 0.688635 5.57999 0.76353 5.54846C0.838424 5.51732 0.915289 5.49366 0.994914 5.4779C1.07454 5.46174 1.15456 5.45346 1.23576 5.45306V5.46095ZM1.23576 6.52839H21.5763C21.598 6.52918 21.6189 6.53391 21.6386 6.54298C21.6583 6.55165 21.6753 6.56426 21.6902 6.58003C21.7052 6.5958 21.7162 6.61353 21.7241 6.63403C21.7316 6.65413 21.7352 6.67503 21.7344 6.69671V16.4894C21.7344 16.5102 21.7304 16.5307 21.7226 16.5501C21.7143 16.5698 21.7032 16.5867 21.6883 16.6017C21.6737 16.6171 21.6563 16.6285 21.637 16.6368C21.6177 16.6451 21.5976 16.6494 21.5763 16.6498H1.23576C1.21447 16.6494 1.19437 16.6451 1.17506 16.6368C1.15574 16.6285 1.1384 16.6171 1.12381 16.6017C1.10883 16.5867 1.0978 16.5698 1.08952 16.5501C1.08163 16.5307 1.07769 16.5102 1.07769 16.4894V6.68922C1.0769 6.66754 1.08045 6.64665 1.08794 6.62615C1.09582 6.60604 1.10686 6.58791 1.12184 6.57215C1.13643 6.55638 1.15377 6.54416 1.17348 6.53509C1.19319 6.52642 1.21408 6.52169 1.23576 6.5209V6.52839Z" fill="#527494"/>
</g>
<path d="M5.125 13.9615H6.09863V12.2847H6.90867C7.90516 12.2847 8.62888 11.6504 8.62888 10.7407C8.62888 9.83089 7.90516 9.21163 6.90867 9.21163H5.125V13.9615ZM6.09863 11.4336V10.0603H6.90867C6.95558 10.0575 7.00209 10.0595 7.04861 10.0662C7.09512 10.0729 7.14045 10.084 7.1846 10.1001C7.22875 10.1159 7.27092 10.1364 7.31074 10.1608C7.35094 10.1853 7.388 10.2136 7.4219 10.246C7.45619 10.2783 7.48694 10.3134 7.51374 10.352C7.54094 10.3902 7.56341 10.4308 7.58233 10.4742C7.60085 10.5172 7.61504 10.5617 7.62451 10.6078C7.63397 10.6535 7.6387 10.7001 7.6387 10.747C7.6387 10.7939 7.63397 10.8404 7.62451 10.8865C7.61504 10.9322 7.60085 10.9768 7.58233 11.0201C7.56341 11.0631 7.54094 11.1037 7.51374 11.1423C7.48694 11.1806 7.45619 11.216 7.4219 11.248C7.388 11.2803 7.35094 11.3087 7.31074 11.3331C7.27092 11.358 7.22875 11.3781 7.1846 11.3942C7.14045 11.41 7.09512 11.4214 7.04861 11.4281C7.00209 11.4348 6.95558 11.4368 6.90867 11.4336H6.09863ZM9.41094 13.9615H10.9703C12.4737 13.9844 13.5845 12.9422 13.564 11.5712C13.5845 10.1624 12.4737 9.18641 10.9703 9.20178H9.41094V13.9615ZM10.3842 13.0797V10.0832H10.9549C11.9309 10.0832 12.5526 10.6465 12.5526 11.5712C12.5526 12.4963 11.9156 13.0797 10.9549 13.0797H10.3842ZM14.3871 13.9615H15.3631V12.155H17.1314V11.276H15.3631V10.0832H17.5212V9.20178H14.3871V13.9615Z" fill="#527494"/>
<path fill-rule="evenodd" clip-rule="evenodd" d="M24.0863 22.1668C24.1935 22.1664 24.3004 22.1692 24.4072 22.1743C24.514 22.1794 24.6208 22.1873 24.7272 22.1979C24.8341 22.2082 24.9401 22.2212 25.0457 22.2369C25.1518 22.2527 25.257 22.2708 25.3623 22.2917C25.4671 22.3126 25.5716 22.3359 25.6753 22.3619C25.7793 22.3879 25.8822 22.4163 25.9847 22.4474C26.0872 22.4786 26.1885 22.5121 26.2894 22.548C26.3903 22.5842 26.49 22.6225 26.589 22.6635C26.6879 22.7044 26.7857 22.7478 26.8822 22.7935C26.9792 22.8393 27.0746 22.8873 27.1692 22.9374C27.2634 22.9879 27.3564 23.0407 27.4483 23.0959C27.5401 23.1507 27.6304 23.2078 27.7195 23.2673C27.8086 23.3269 27.8961 23.3884 27.982 23.4522C28.0679 23.5157 28.1523 23.5815 28.2351 23.6493C28.3178 23.7171 28.399 23.7873 28.4783 23.859C28.5575 23.9307 28.6352 24.0045 28.7108 24.0801C28.7865 24.1558 28.8602 24.2335 28.932 24.3127C29.0041 24.3919 29.0739 24.4727 29.1417 24.5555C29.2099 24.6383 29.2757 24.7227 29.3392 24.8086C29.403 24.8945 29.4649 24.982 29.524 25.0707C29.5836 25.1598 29.6411 25.2501 29.6959 25.3419C29.7511 25.4338 29.8039 25.5268 29.8544 25.621C29.9048 25.7156 29.9529 25.811 29.9986 25.908C30.0444 26.0045 30.0877 26.1023 30.1287 26.2012C30.1697 26.3002 30.2083 26.3999 30.2442 26.5008C30.2805 26.6013 30.314 26.703 30.3451 26.8055C30.3763 26.9076 30.4046 27.0109 30.4307 27.1146C30.4567 27.2186 30.4803 27.3227 30.5012 27.4279C30.5221 27.5328 30.5406 27.638 30.556 27.7441C30.5718 27.8497 30.5852 27.9561 30.5954 28.0626C30.6061 28.169 30.614 28.2758 30.6191 28.3826C30.6246 28.4895 30.6274 28.5963 30.6274 28.7035C30.6274 28.8103 30.6246 28.9175 30.6195 29.0244C30.6143 29.1312 30.6065 29.238 30.5958 29.3444C30.5856 29.4509 30.5722 29.5573 30.5568 29.6629C30.541 29.769 30.5229 29.8742 30.502 29.9791C30.4811 30.0843 30.4575 30.1884 30.4318 30.2924C30.4058 30.3961 30.3771 30.4994 30.3463 30.6019C30.3152 30.704 30.2817 30.8057 30.2454 30.9066C30.2095 31.0075 30.1709 31.1072 30.1299 31.2062C30.0893 31.3047 30.0459 31.4029 30.0002 31.4994C29.9545 31.596 29.9064 31.6918 29.8559 31.786C29.8055 31.8806 29.7527 31.9736 29.6979 32.0655C29.6427 32.1573 29.5855 32.2476 29.526 32.3367C29.4665 32.4258 29.405 32.5133 29.3415 32.5992C29.2777 32.6851 29.2119 32.7695 29.1441 32.8523C29.0763 32.935 29.0061 33.0158 28.9343 33.0951C28.8626 33.1747 28.7889 33.252 28.7132 33.3276C28.6375 33.4033 28.5599 33.477 28.4806 33.5492C28.4014 33.6209 28.3206 33.6907 28.2378 33.7589C28.1551 33.8267 28.0707 33.8925 27.9848 33.9564C27.8988 34.0202 27.8113 34.0817 27.7222 34.1412C27.6335 34.2008 27.5429 34.2579 27.4514 34.3131C27.3596 34.3679 27.2666 34.4207 27.172 34.4712C27.0778 34.5216 26.9824 34.5697 26.8854 34.6154C26.7888 34.6612 26.6911 34.7045 26.5921 34.7455C26.4932 34.7865 26.3935 34.8251 26.2925 34.861C26.192 34.8973 26.0903 34.9308 25.9878 34.9619C25.8854 34.9931 25.7825 35.0214 25.6788 35.0475C25.5747 35.0735 25.4703 35.0971 25.3654 35.118C25.2606 35.1389 25.1553 35.157 25.0493 35.1728C24.9433 35.1886 24.8372 35.2016 24.7308 35.2122C24.6244 35.2229 24.5175 35.2307 24.4107 35.2359C24.3039 35.241 24.1967 35.2438 24.0899 35.2438C23.983 35.2438 23.8758 35.241 23.769 35.2359C23.6622 35.2307 23.5553 35.2229 23.4489 35.2122C23.3425 35.202 23.2365 35.189 23.1304 35.1732C23.0244 35.1574 22.9191 35.1393 22.8143 35.1184C22.7094 35.0975 22.605 35.0739 22.5009 35.0478C22.3972 35.0218 22.294 34.9935 22.1919 34.9623C22.0894 34.9312 21.9877 34.8977 21.8872 34.8618C21.7863 34.8255 21.6865 34.7873 21.5876 34.7463C21.4887 34.7053 21.3909 34.6619 21.2943 34.6162C21.1974 34.5705 21.102 34.5224 21.0074 34.4719C20.9131 34.4215 20.8201 34.3687 20.7283 34.3139C20.6364 34.2587 20.5462 34.2015 20.4571 34.142C20.368 34.0825 20.2805 34.021 20.1946 33.9571C20.1086 33.8937 20.0243 33.8279 19.9415 33.7601C19.8587 33.6919 19.7779 33.6221 19.6987 33.5504C19.6194 33.4782 19.5418 33.4045 19.4661 33.3288C19.3904 33.2531 19.3167 33.1759 19.245 33.0966C19.1728 33.017 19.1031 32.9362 19.0353 32.8534C18.9671 32.7707 18.9012 32.6863 18.8378 32.6004C18.7739 32.5144 18.7124 32.4269 18.6529 32.3382C18.5934 32.2492 18.5362 32.1589 18.481 32.067C18.4263 31.9752 18.3734 31.8822 18.323 31.7876C18.2725 31.6934 18.2244 31.5976 18.1787 31.501C18.133 31.4044 18.0896 31.3063 18.0486 31.2077C18.0076 31.1088 17.969 31.0091 17.9331 30.9082C17.8969 30.8072 17.8634 30.7059 17.8322 30.6035C17.8015 30.501 17.7727 30.3977 17.7467 30.294C17.7207 30.1903 17.6974 30.0859 17.6765 29.981C17.6556 29.8758 17.6375 29.7705 17.6217 29.6645C17.606 29.5589 17.593 29.4524 17.5823 29.346C17.5717 29.2396 17.5638 29.1328 17.5587 29.0259C17.5535 28.9191 17.5508 28.8123 17.5508 28.7051C17.5508 28.5983 17.5535 28.4914 17.5587 28.3846C17.5638 28.2774 17.5717 28.171 17.5823 28.0645C17.593 27.9581 17.606 27.8517 17.6217 27.746C17.6371 27.6404 17.6556 27.5347 17.6765 27.4299C17.6974 27.325 17.7207 27.2206 17.7467 27.1169C17.7727 27.0132 17.8011 26.91 17.8322 26.8075C17.8634 26.7054 17.8969 26.6037 17.9327 26.5028C17.969 26.4023 18.0072 26.3025 18.0482 26.2036C18.0892 26.1047 18.1326 26.0069 18.1783 25.9103C18.224 25.8134 18.2721 25.718 18.3226 25.6238C18.373 25.5292 18.4255 25.4361 18.4807 25.3443C18.5354 25.2528 18.5926 25.1622 18.6521 25.0735C18.7116 24.9844 18.7731 24.8969 18.837 24.811C18.9005 24.725 18.9663 24.6407 19.0341 24.5579C19.1019 24.4755 19.172 24.3943 19.2438 24.3151C19.3155 24.2358 19.3892 24.1582 19.4649 24.0825C19.5406 24.0068 19.6179 23.9331 19.6971 23.8614C19.7763 23.7896 19.8575 23.7195 19.9403 23.6517C20.0227 23.5839 20.107 23.518 20.193 23.4542C20.2789 23.3903 20.3664 23.3288 20.4551 23.2693C20.5442 23.2098 20.6345 23.1526 20.7263 23.0978C20.8182 23.0427 20.9112 22.9898 21.0054 22.9394C21.0996 22.8889 21.1954 22.8408 21.292 22.7951C21.3885 22.7494 21.4863 22.706 21.5852 22.665C21.6842 22.624 21.7839 22.5854 21.8844 22.5495C21.9853 22.5133 22.0866 22.4798 22.1891 22.4486C22.2916 22.4175 22.3945 22.3891 22.4982 22.3631C22.6022 22.3371 22.7063 22.3134 22.8111 22.2925C22.9164 22.2716 23.0216 22.2535 23.1273 22.2377C23.2333 22.222 23.3393 22.209 23.4458 22.1983C23.5522 22.1877 23.659 22.1798 23.7658 22.1747C23.8727 22.1692 23.9795 22.1668 24.0863 22.1668ZM22.8454 24.5721H25.33V28.5088H27.0498L24.0942 32.8408L21.141 28.5088H22.8533L22.8454 24.5721Z" fill="#527494"/>
</svg>
