<svg width="93" height="90" viewBox="0 0 93 90" fill="none" xmlns="http://www.w3.org/2000/svg">
<mask id="mask0_228_211" style="mask-type:luminance" maskUnits="userSpaceOnUse" x="0" y="0" width="93" height="90">
<path d="M91.4668 0.666992V89.333H0.666992V0.666992H91.4668Z" fill="white" stroke="white" stroke-width="1.33333"/>
</mask>
<g mask="url(#mask0_228_211)">
<mask id="path-2-inside-1_228_211" fill="white">
<path fill-rule="evenodd" clip-rule="evenodd" d="M24.5916 25.4303H19.5427V44.4079C19.5427 45.1239 18.9319 45.705 18.1792 45.705C17.4265 45.705 16.8158 45.1239 16.8158 44.4079V24.1333C16.8158 23.4173 17.4265 22.8362 18.1792 22.8362H24.5916V22.1061C24.5916 20.6551 25.8293 19.4777 27.3546 19.4777C30.3402 19.4777 31.8366 16.0387 29.7262 14.0318C28.6472 13.0054 28.6472 11.3408 29.7262 10.315L32.7421 7.44601C33.8205 6.42016 35.5703 6.42016 36.6487 7.44601C38.7591 9.45354 42.3742 8.03011 42.3742 5.19061C42.3742 3.73896 43.6119 2.56156 45.1373 2.56156H49.3993C50.9246 2.56156 52.1623 3.73896 52.1623 5.19061C52.1623 7.32391 54.2004 8.65961 56.1102 8.3424L63.105 1.67744C65.2947 -0.40862 68.8852 -0.411074 71.0782 1.6713C73.2769 3.75982 73.2782 7.17482 71.0891 9.26088L63.8215 16.1848C63.7828 17.853 65.1308 19.4777 67.1819 19.4777C68.7124 19.4777 69.9449 20.6551 69.9449 22.1061V22.8362H73.9554C74.7081 22.8362 75.3189 23.4173 75.3189 24.1333V44.4079C75.3189 45.1239 74.7081 45.705 73.9554 45.705C73.2027 45.705 72.5919 45.1239 72.5919 44.4079V25.4303H69.9449V26.1604C69.9449 27.6121 68.7124 28.7889 67.1819 28.7889C64.1982 28.7889 62.6999 32.2284 64.8103 34.2353C65.888 35.2606 65.888 36.9288 64.8103 37.954L61.797 40.8205C60.7192 41.8464 58.9655 41.8464 57.8878 40.8205C55.7774 38.8136 52.1623 40.2383 52.1623 43.0765C52.1623 44.5325 50.9246 45.705 49.3993 45.705H45.1373C43.6119 45.705 42.3742 44.5325 42.3742 43.0765C42.3742 40.2352 38.7604 38.8118 36.6487 40.8205C35.5703 41.847 33.8205 41.847 32.7421 40.8211L29.7262 37.954C28.6485 36.9288 28.6485 35.2606 29.7262 34.2353C31.8366 32.2284 30.3402 28.7889 27.3546 28.7889C25.8293 28.7889 24.5916 27.6121 24.5916 26.1604V25.4303ZM35.6652 24.1333C35.6664 18.053 40.8772 13.0962 47.2695 13.0962C48.4357 13.0962 49.5624 13.2612 50.6253 13.568L53.6477 10.6886C51.3148 9.96585 49.4354 7.94667 49.4354 5.19061C49.4354 5.17159 49.4192 5.15625 49.3993 5.15625H45.1373C45.1173 5.15625 45.1011 5.17159 45.1011 5.19061C45.1011 10.3395 38.5463 12.9201 34.7203 9.28052C34.7067 9.26702 34.6841 9.26702 34.67 9.28052L31.6541 12.1495C31.6405 12.1623 31.6405 12.1838 31.6541 12.1973C35.48 15.8369 32.7673 22.0717 27.3546 22.0717C27.3347 22.0717 27.3185 22.0871 27.3185 22.1061V26.1604C27.3185 26.1794 27.3347 26.1948 27.3546 26.1948C32.7673 26.1948 35.48 32.4303 31.6541 36.0698C31.6399 36.0833 31.6399 36.106 31.6541 36.1201L34.67 38.9866C34.6841 38.9995 34.7067 38.9995 34.7203 38.9866C38.5495 35.344 45.1011 37.9246 45.1011 43.0765C45.1011 43.0956 45.1173 43.1109 45.1373 43.1109H49.3993C49.4192 43.1109 49.4354 43.0956 49.4354 43.0765C49.4354 37.9307 55.9903 35.3471 59.8156 38.9866C59.8304 39.0001 59.8543 39.0001 59.8685 38.9866L62.8818 36.1201C62.8966 36.106 62.8966 36.0833 62.8818 36.0698C59.0565 32.4303 61.7725 26.1948 67.1819 26.1948C67.2019 26.1948 67.2173 26.1794 67.2173 26.1604V22.1061C67.2173 22.0871 67.2019 22.0717 67.1819 22.0717C64.4233 22.0717 62.3652 20.4508 61.5183 18.3794L58.4779 21.2766C58.7359 22.1883 58.8733 23.1461 58.8733 24.1333V24.1345C58.8733 30.2129 53.6593 35.1734 47.2695 35.1734C45.2792 35.1734 43.4029 34.6924 41.7634 33.8469L37.1492 35.4109C36.6462 35.5814 36.0844 35.4563 35.7129 35.0912C35.3407 34.7268 35.2272 34.1887 35.422 33.7156L37.1479 29.5251C36.2044 27.9293 35.6652 26.0899 35.6652 24.1345M56.1231 23.5203L47.4456 31.7879C47.3024 31.9247 47.1289 32.029 46.938 32.0934L45.8325 32.4683C46.3001 32.5413 46.7807 32.5794 47.2695 32.5794C52.1572 32.5794 56.1463 28.7846 56.1463 24.1345V24.1339C56.1463 23.9271 56.1386 23.7228 56.1231 23.5203ZM38.6075 25.9825L39.157 24.648C39.2254 24.4824 39.3293 24.3314 39.4615 24.2051L48.3344 15.751C47.9855 15.7111 47.6301 15.6902 47.2695 15.6902C42.3793 15.6902 38.3928 19.482 38.3921 24.1339V24.1345C38.3921 24.7689 38.4669 25.3874 38.6075 25.9825ZM61.6512 6.73491L42.4051 25.072L46.5298 28.9889L65.7752 10.6518L61.6512 6.73491ZM40.9649 27.3691C40.2129 29.195 39.0526 32.0118 39.0526 32.0118L44.0647 30.3135L40.9649 27.3691ZM67.7024 8.81606L69.1594 7.4276C70.29 6.35022 70.2868 4.58627 69.151 3.50765C68.019 2.4321 66.1647 2.43333 65.0347 3.51072L63.5777 4.89918L67.7024 8.81606ZM36.3624 48.1365V88.6576C36.3624 89.3742 35.7516 89.9546 34.9989 89.9546H1.35957C0.606885 89.9546 -0.00390625 89.3742 -0.00390625 88.6576V54.7247C-0.00390625 54.3805 0.139923 54.0504 0.395978 53.8075L7.32108 47.2192C7.57713 46.9762 7.92348 46.8394 8.28531 46.8394H34.9989C35.7516 46.8394 36.3624 47.4198 36.3624 48.1365ZM6.92184 51.268L4.65152 53.4277C5.85247 53.4277 6.92184 53.4277 6.92184 53.4277V51.268ZM2.72305 56.0218C2.72305 60.8774 2.72305 87.3605 2.72305 87.3605C8.86192 87.3605 33.6354 87.3605 33.6354 87.3605V49.4335H9.64879V54.7247C9.64879 55.4407 9.03864 56.0218 8.28531 56.0218H2.72305ZM21.8807 68.3528C21.1281 68.3528 20.5166 67.7712 20.5166 67.0558C20.5166 66.3398 21.1281 65.7588 21.8807 65.7588H30.8053C31.558 65.7588 32.1687 66.3398 32.1687 67.0558C32.1687 67.7712 31.558 68.3528 30.8053 68.3528H21.8807ZM5.93309 75.0828C5.1804 75.0828 4.56961 74.5012 4.56961 73.7858C4.56961 73.0698 5.1804 72.4888 5.93309 72.4888H18.5598C19.3118 72.4888 19.9232 73.0698 19.9232 73.7858C19.9232 74.5012 19.3118 75.0828 18.5598 75.0828H5.93309ZM5.93309 68.3528C5.1804 68.3528 4.56961 67.7712 4.56961 67.0558C4.56961 66.3398 5.1804 65.7588 5.93309 65.7588H18.5598C19.3118 65.7588 19.9232 66.3398 19.9232 67.0558C19.9232 67.7712 19.3118 68.3528 18.5598 68.3528H5.93309ZM5.93309 61.6228C5.1804 61.6228 4.56961 61.0412 4.56961 60.3258C4.56961 59.6098 5.1804 59.0288 5.93309 59.0288H18.5598C19.3118 59.0288 19.9232 59.6098 19.9232 60.3258C19.9232 61.0412 19.3118 61.6228 18.5598 61.6228H5.93309ZM21.8807 61.6228C21.1281 61.6228 20.5166 61.0412 20.5166 60.3258C20.5166 59.6098 21.1281 59.0288 21.8807 59.0288H30.8053C31.558 59.0288 32.1687 59.6098 32.1687 60.3258C32.1687 61.0412 31.558 61.6228 30.8053 61.6228H21.8807ZM21.8807 75.0828C21.1281 75.0828 20.5166 74.5012 20.5166 73.7858C20.5166 73.0698 21.1281 72.4888 21.8807 72.4888H30.8053C31.558 72.4888 32.1687 73.0698 32.1687 73.7858C32.1687 74.5012 31.558 75.0828 30.8053 75.0828H21.8807ZM5.93309 81.8128C5.1804 81.8128 4.56961 81.2318 4.56961 80.5158C4.56961 79.7998 5.1804 79.2188 5.93309 79.2188H18.5598C19.3118 79.2188 19.9232 79.7998 19.9232 80.5158C19.9232 81.2318 19.3118 81.8128 18.5598 81.8128H5.93309ZM14.8602 55.9463C14.1075 55.9463 13.4967 55.3647 13.4967 54.6493C13.4967 53.9333 14.1075 53.3522 14.8602 53.3522H30.8053C31.558 53.3522 32.1687 53.9333 32.1687 54.6493C32.1687 55.3647 31.558 55.9463 30.8053 55.9463H14.8602ZM21.8807 81.8128C21.1281 81.8128 20.5166 81.2318 20.5166 80.5158C20.5166 79.7998 21.1281 79.2188 21.8807 79.2188H30.8053C31.558 79.2188 32.1687 79.7998 32.1687 80.5158C32.1687 81.2318 31.558 81.8128 30.8053 81.8128H21.8807ZM92.1385 48.1365V88.6576C92.1385 89.3742 91.5277 89.9546 90.7751 89.9546H57.1357C56.383 89.9546 55.7723 89.3742 55.7723 88.6576V54.7247C55.7723 54.3805 55.9161 54.0504 56.1715 53.8075L63.0972 47.2192C63.3526 46.9762 63.6996 46.8394 64.0615 46.8394H90.7751C91.5277 46.8394 92.1385 47.4198 92.1385 48.1365ZM62.698 51.268L60.4277 53.4277C61.6286 53.4277 62.698 53.4277 62.698 53.4277V51.268ZM58.4992 56.0218C58.4992 60.8774 58.4992 87.3605 58.4992 87.3605H89.4116V49.4335H65.4249V54.7247C65.4249 55.4407 64.8142 56.0218 64.0615 56.0218H58.4992ZM61.7092 68.3528C60.9566 68.3528 60.3458 67.7712 60.3458 67.0558C60.3458 66.3398 60.9566 65.7588 61.7092 65.7588H74.3353C75.088 65.7588 75.6988 66.3398 75.6988 67.0558C75.6988 67.7712 75.088 68.3528 74.3353 68.3528H61.7092ZM61.7092 61.6228C60.9566 61.6228 60.3458 61.0412 60.3458 60.3258C60.3458 59.6098 60.9566 59.0288 61.7092 59.0288H74.3353C75.088 59.0288 75.6988 59.6098 75.6988 60.3258C75.6988 61.0412 75.088 61.6228 74.3353 61.6228H61.7092ZM78.1381 75.0828C77.3854 75.0828 76.7746 74.5012 76.7746 73.7858C76.7746 73.0698 77.3854 72.4888 78.1381 72.4888H86.3131C87.0658 72.4888 87.6766 73.0698 87.6766 73.7858C87.6766 74.5012 87.0658 75.0828 86.3131 75.0828H78.1381ZM78.1381 81.8128C77.3854 81.8128 76.7746 81.2318 76.7746 80.5158C76.7746 79.7998 77.3854 79.2188 78.1381 79.2188H86.3131C87.0658 79.2188 87.6766 79.7998 87.6766 80.5158C87.6766 81.2318 87.0658 81.8128 86.3131 81.8128H78.1381ZM61.7092 75.0828C60.9566 75.0828 60.3458 74.5012 60.3458 73.7858C60.3458 73.0698 60.9566 72.4888 61.7092 72.4888H74.3353C75.088 72.4888 75.6988 73.0698 75.6988 73.7858C75.6988 74.5012 75.088 75.0828 74.3353 75.0828H61.7092ZM61.7092 81.8128C60.9566 81.8128 60.3458 81.2318 60.3458 80.5158C60.3458 79.7998 60.9566 79.2188 61.7092 79.2188H74.3353C75.088 79.2188 75.6988 79.7998 75.6988 80.5158C75.6988 81.2318 75.088 81.8128 74.3353 81.8128H61.7092ZM87.6766 60.4675V67.0558C87.6766 67.7718 87.0658 68.3528 86.3131 68.3528H78.1381C77.3854 68.3528 76.7746 67.7718 76.7746 67.0558V60.4675C76.7746 59.7509 77.3854 59.1705 78.1381 59.1705H86.3131C87.0658 59.1705 87.6766 59.7509 87.6766 60.4675ZM84.9496 61.7646H79.5015V65.7588H84.9496V61.7646ZM70.6357 55.9463C69.883 55.9463 69.2722 55.3647 69.2722 54.6493C69.2722 53.9333 69.883 53.3522 70.6357 53.3522H86.5814C87.3341 53.3522 87.9449 53.9333 87.9449 54.6493C87.9449 55.3647 87.3341 55.9463 86.5814 55.9463H70.6357Z"/>
</mask>
<path fill-rule="evenodd" clip-rule="evenodd" d="M24.5916 25.4303H19.5427V44.4079C19.5427 45.1239 18.9319 45.705 18.1792 45.705C17.4265 45.705 16.8158 45.1239 16.8158 44.4079V24.1333C16.8158 23.4173 17.4265 22.8362 18.1792 22.8362H24.5916V22.1061C24.5916 20.6551 25.8293 19.4777 27.3546 19.4777C30.3402 19.4777 31.8366 16.0387 29.7262 14.0318C28.6472 13.0054 28.6472 11.3408 29.7262 10.315L32.7421 7.44601C33.8205 6.42016 35.5703 6.42016 36.6487 7.44601C38.7591 9.45354 42.3742 8.03011 42.3742 5.19061C42.3742 3.73896 43.6119 2.56156 45.1373 2.56156H49.3993C50.9246 2.56156 52.1623 3.73896 52.1623 5.19061C52.1623 7.32391 54.2004 8.65961 56.1102 8.3424L63.105 1.67744C65.2947 -0.40862 68.8852 -0.411074 71.0782 1.6713C73.2769 3.75982 73.2782 7.17482 71.0891 9.26088L63.8215 16.1848C63.7828 17.853 65.1308 19.4777 67.1819 19.4777C68.7124 19.4777 69.9449 20.6551 69.9449 22.1061V22.8362H73.9554C74.7081 22.8362 75.3189 23.4173 75.3189 24.1333V44.4079C75.3189 45.1239 74.7081 45.705 73.9554 45.705C73.2027 45.705 72.5919 45.1239 72.5919 44.4079V25.4303H69.9449V26.1604C69.9449 27.6121 68.7124 28.7889 67.1819 28.7889C64.1982 28.7889 62.6999 32.2284 64.8103 34.2353C65.888 35.2606 65.888 36.9288 64.8103 37.954L61.797 40.8205C60.7192 41.8464 58.9655 41.8464 57.8878 40.8205C55.7774 38.8136 52.1623 40.2383 52.1623 43.0765C52.1623 44.5325 50.9246 45.705 49.3993 45.705H45.1373C43.6119 45.705 42.3742 44.5325 42.3742 43.0765C42.3742 40.2352 38.7604 38.8118 36.6487 40.8205C35.5703 41.847 33.8205 41.847 32.7421 40.8211L29.7262 37.954C28.6485 36.9288 28.6485 35.2606 29.7262 34.2353C31.8366 32.2284 30.3402 28.7889 27.3546 28.7889C25.8293 28.7889 24.5916 27.6121 24.5916 26.1604V25.4303ZM35.6652 24.1333C35.6664 18.053 40.8772 13.0962 47.2695 13.0962C48.4357 13.0962 49.5624 13.2612 50.6253 13.568L53.6477 10.6886C51.3148 9.96585 49.4354 7.94667 49.4354 5.19061C49.4354 5.17159 49.4192 5.15625 49.3993 5.15625H45.1373C45.1173 5.15625 45.1011 5.17159 45.1011 5.19061C45.1011 10.3395 38.5463 12.9201 34.7203 9.28052C34.7067 9.26702 34.6841 9.26702 34.67 9.28052L31.6541 12.1495C31.6405 12.1623 31.6405 12.1838 31.6541 12.1973C35.48 15.8369 32.7673 22.0717 27.3546 22.0717C27.3347 22.0717 27.3185 22.0871 27.3185 22.1061V26.1604C27.3185 26.1794 27.3347 26.1948 27.3546 26.1948C32.7673 26.1948 35.48 32.4303 31.6541 36.0698C31.6399 36.0833 31.6399 36.106 31.6541 36.1201L34.67 38.9866C34.6841 38.9995 34.7067 38.9995 34.7203 38.9866C38.5495 35.344 45.1011 37.9246 45.1011 43.0765C45.1011 43.0956 45.1173 43.1109 45.1373 43.1109H49.3993C49.4192 43.1109 49.4354 43.0956 49.4354 43.0765C49.4354 37.9307 55.9903 35.3471 59.8156 38.9866C59.8304 39.0001 59.8543 39.0001 59.8685 38.9866L62.8818 36.1201C62.8966 36.106 62.8966 36.0833 62.8818 36.0698C59.0565 32.4303 61.7725 26.1948 67.1819 26.1948C67.2019 26.1948 67.2173 26.1794 67.2173 26.1604V22.1061C67.2173 22.0871 67.2019 22.0717 67.1819 22.0717C64.4233 22.0717 62.3652 20.4508 61.5183 18.3794L58.4779 21.2766C58.7359 22.1883 58.8733 23.1461 58.8733 24.1333V24.1345C58.8733 30.2129 53.6593 35.1734 47.2695 35.1734C45.2792 35.1734 43.4029 34.6924 41.7634 33.8469L37.1492 35.4109C36.6462 35.5814 36.0844 35.4563 35.7129 35.0912C35.3407 34.7268 35.2272 34.1887 35.422 33.7156L37.1479 29.5251C36.2044 27.9293 35.6652 26.0899 35.6652 24.1345M56.1231 23.5203L47.4456 31.7879C47.3024 31.9247 47.1289 32.029 46.938 32.0934L45.8325 32.4683C46.3001 32.5413 46.7807 32.5794 47.2695 32.5794C52.1572 32.5794 56.1463 28.7846 56.1463 24.1345V24.1339C56.1463 23.9271 56.1386 23.7228 56.1231 23.5203ZM38.6075 25.9825L39.157 24.648C39.2254 24.4824 39.3293 24.3314 39.4615 24.2051L48.3344 15.751C47.9855 15.7111 47.6301 15.6902 47.2695 15.6902C42.3793 15.6902 38.3928 19.482 38.3921 24.1339V24.1345C38.3921 24.7689 38.4669 25.3874 38.6075 25.9825ZM61.6512 6.73491L42.4051 25.072L46.5298 28.9889L65.7752 10.6518L61.6512 6.73491ZM40.9649 27.3691C40.2129 29.195 39.0526 32.0118 39.0526 32.0118L44.0647 30.3135L40.9649 27.3691ZM67.7024 8.81606L69.1594 7.4276C70.29 6.35022 70.2868 4.58627 69.151 3.50765C68.019 2.4321 66.1647 2.43333 65.0347 3.51072L63.5777 4.89918L67.7024 8.81606ZM36.3624 48.1365V88.6576C36.3624 89.3742 35.7516 89.9546 34.9989 89.9546H1.35957C0.606885 89.9546 -0.00390625 89.3742 -0.00390625 88.6576V54.7247C-0.00390625 54.3805 0.139923 54.0504 0.395978 53.8075L7.32108 47.2192C7.57713 46.9762 7.92348 46.8394 8.28531 46.8394H34.9989C35.7516 46.8394 36.3624 47.4198 36.3624 48.1365ZM6.92184 51.268L4.65152 53.4277C5.85247 53.4277 6.92184 53.4277 6.92184 53.4277V51.268ZM2.72305 56.0218C2.72305 60.8774 2.72305 87.3605 2.72305 87.3605C8.86192 87.3605 33.6354 87.3605 33.6354 87.3605V49.4335H9.64879V54.7247C9.64879 55.4407 9.03864 56.0218 8.28531 56.0218H2.72305ZM21.8807 68.3528C21.1281 68.3528 20.5166 67.7712 20.5166 67.0558C20.5166 66.3398 21.1281 65.7588 21.8807 65.7588H30.8053C31.558 65.7588 32.1687 66.3398 32.1687 67.0558C32.1687 67.7712 31.558 68.3528 30.8053 68.3528H21.8807ZM5.93309 75.0828C5.1804 75.0828 4.56961 74.5012 4.56961 73.7858C4.56961 73.0698 5.1804 72.4888 5.93309 72.4888H18.5598C19.3118 72.4888 19.9232 73.0698 19.9232 73.7858C19.9232 74.5012 19.3118 75.0828 18.5598 75.0828H5.93309ZM5.93309 68.3528C5.1804 68.3528 4.56961 67.7712 4.56961 67.0558C4.56961 66.3398 5.1804 65.7588 5.93309 65.7588H18.5598C19.3118 65.7588 19.9232 66.3398 19.9232 67.0558C19.9232 67.7712 19.3118 68.3528 18.5598 68.3528H5.93309ZM5.93309 61.6228C5.1804 61.6228 4.56961 61.0412 4.56961 60.3258C4.56961 59.6098 5.1804 59.0288 5.93309 59.0288H18.5598C19.3118 59.0288 19.9232 59.6098 19.9232 60.3258C19.9232 61.0412 19.3118 61.6228 18.5598 61.6228H5.93309ZM21.8807 61.6228C21.1281 61.6228 20.5166 61.0412 20.5166 60.3258C20.5166 59.6098 21.1281 59.0288 21.8807 59.0288H30.8053C31.558 59.0288 32.1687 59.6098 32.1687 60.3258C32.1687 61.0412 31.558 61.6228 30.8053 61.6228H21.8807ZM21.8807 75.0828C21.1281 75.0828 20.5166 74.5012 20.5166 73.7858C20.5166 73.0698 21.1281 72.4888 21.8807 72.4888H30.8053C31.558 72.4888 32.1687 73.0698 32.1687 73.7858C32.1687 74.5012 31.558 75.0828 30.8053 75.0828H21.8807ZM5.93309 81.8128C5.1804 81.8128 4.56961 81.2318 4.56961 80.5158C4.56961 79.7998 5.1804 79.2188 5.93309 79.2188H18.5598C19.3118 79.2188 19.9232 79.7998 19.9232 80.5158C19.9232 81.2318 19.3118 81.8128 18.5598 81.8128H5.93309ZM14.8602 55.9463C14.1075 55.9463 13.4967 55.3647 13.4967 54.6493C13.4967 53.9333 14.1075 53.3522 14.8602 53.3522H30.8053C31.558 53.3522 32.1687 53.9333 32.1687 54.6493C32.1687 55.3647 31.558 55.9463 30.8053 55.9463H14.8602ZM21.8807 81.8128C21.1281 81.8128 20.5166 81.2318 20.5166 80.5158C20.5166 79.7998 21.1281 79.2188 21.8807 79.2188H30.8053C31.558 79.2188 32.1687 79.7998 32.1687 80.5158C32.1687 81.2318 31.558 81.8128 30.8053 81.8128H21.8807ZM92.1385 48.1365V88.6576C92.1385 89.3742 91.5277 89.9546 90.7751 89.9546H57.1357C56.383 89.9546 55.7723 89.3742 55.7723 88.6576V54.7247C55.7723 54.3805 55.9161 54.0504 56.1715 53.8075L63.0972 47.2192C63.3526 46.9762 63.6996 46.8394 64.0615 46.8394H90.7751C91.5277 46.8394 92.1385 47.4198 92.1385 48.1365ZM62.698 51.268L60.4277 53.4277C61.6286 53.4277 62.698 53.4277 62.698 53.4277V51.268ZM58.4992 56.0218C58.4992 60.8774 58.4992 87.3605 58.4992 87.3605H89.4116V49.4335H65.4249V54.7247C65.4249 55.4407 64.8142 56.0218 64.0615 56.0218H58.4992ZM61.7092 68.3528C60.9566 68.3528 60.3458 67.7712 60.3458 67.0558C60.3458 66.3398 60.9566 65.7588 61.7092 65.7588H74.3353C75.088 65.7588 75.6988 66.3398 75.6988 67.0558C75.6988 67.7712 75.088 68.3528 74.3353 68.3528H61.7092ZM61.7092 61.6228C60.9566 61.6228 60.3458 61.0412 60.3458 60.3258C60.3458 59.6098 60.9566 59.0288 61.7092 59.0288H74.3353C75.088 59.0288 75.6988 59.6098 75.6988 60.3258C75.6988 61.0412 75.088 61.6228 74.3353 61.6228H61.7092ZM78.1381 75.0828C77.3854 75.0828 76.7746 74.5012 76.7746 73.7858C76.7746 73.0698 77.3854 72.4888 78.1381 72.4888H86.3131C87.0658 72.4888 87.6766 73.0698 87.6766 73.7858C87.6766 74.5012 87.0658 75.0828 86.3131 75.0828H78.1381ZM78.1381 81.8128C77.3854 81.8128 76.7746 81.2318 76.7746 80.5158C76.7746 79.7998 77.3854 79.2188 78.1381 79.2188H86.3131C87.0658 79.2188 87.6766 79.7998 87.6766 80.5158C87.6766 81.2318 87.0658 81.8128 86.3131 81.8128H78.1381ZM61.7092 75.0828C60.9566 75.0828 60.3458 74.5012 60.3458 73.7858C60.3458 73.0698 60.9566 72.4888 61.7092 72.4888H74.3353C75.088 72.4888 75.6988 73.0698 75.6988 73.7858C75.6988 74.5012 75.088 75.0828 74.3353 75.0828H61.7092ZM61.7092 81.8128C60.9566 81.8128 60.3458 81.2318 60.3458 80.5158C60.3458 79.7998 60.9566 79.2188 61.7092 79.2188H74.3353C75.088 79.2188 75.6988 79.7998 75.6988 80.5158C75.6988 81.2318 75.088 81.8128 74.3353 81.8128H61.7092ZM87.6766 60.4675V67.0558C87.6766 67.7718 87.0658 68.3528 86.3131 68.3528H78.1381C77.3854 68.3528 76.7746 67.7718 76.7746 67.0558V60.4675C76.7746 59.7509 77.3854 59.1705 78.1381 59.1705H86.3131C87.0658 59.1705 87.6766 59.7509 87.6766 60.4675ZM84.9496 61.7646H79.5015V65.7588H84.9496V61.7646ZM70.6357 55.9463C69.883 55.9463 69.2722 55.3647 69.2722 54.6493C69.2722 53.9333 69.883 53.3522 70.6357 53.3522H86.5814C87.3341 53.3522 87.9449 53.9333 87.9449 54.6493C87.9449 55.3647 87.3341 55.9463 86.5814 55.9463H70.6357Z" fill="white" stroke="white" stroke-width="2.66667" mask="url(#path-2-inside-1_228_211)"/>
</g>
</svg>
